<ttFont>
          <CharString index="0">
            232 callgsubr
            -93.97999572753906 31.990005493164062 -21.020004272460938 101.99000549316406 87.02000427246094 126 22.020004272460938 10.979995727539062 49.99000549316406 vhcurveto
            127 -109 613.0099945068359 vlineto
            299 -101 116.99000549316406 -320 -233 -210.99000549316406 -115 -45 -54 vhcurveto
            65 -135 rlineto
            1 hlineto
            34 78.99000549316406 117 47 -51 callgsubr
            hhcurveto
            168.02000427246094 35 58 callsubr
            -140 hvcurveto
            return
          </CharString>
          <CharString index="1">
            rmoveto
            -301 -272 -199 -404.00999450683594 -365 200.99000549316406 -222.97999572753906 343 302 271.02000427246094 187.97999572753906 415 365 -201.02000427246094 223 -343 hvcurveto
            191 -613 rmoveto
            -299.99000549316406 -64.99000549316406 -135 -137 -150 -61 167 303 300.00999450683594 68.02000427246094 76 callgsubr
            138 151 55.99000549316406 -167 -303 vhcurveto
            endchar
          </CharString>
          <CharString index="2">
            -742.0099945068359 253 callsubr
            -31.990005493164062 -64 -46 -98 hhcurveto
            -117 -39 -45 callsubr
            182 hvcurveto
            731 vlineto
            -46 28.020004272460938 rlineto
            -22 callgsubr
            hlineto
            -374 -29 276 callgsubr
            vlineto
            98 -31.990005493164062 rlineto
            -565 vlineto
            -315 110 -118.97999572753906 260.02000427246094 139 156 callgsubr
            77.99000549316406 62 vhcurveto
            -36.99000549316406 vlineto
            return
          </CharString>
          <CharString index="3">
            -133.97999572753906 return
          </CharString>
          <CharString index="4">
            -90 callsubr
            851 hmoveto
            55 callgsubr
            -205 -16 callgsubr
            rlineto
            813 253 170 -253 189 275 callsubr
            30 31 99 92 343 callgsubr
            304 callsubr
            -47 callsubr
            vhcurveto
            296 vlineto
            6 -18.979995727539062 -38.02000427246094 117 callgsubr
            -77 hhcurveto
            -279 -254 26 callgsubr
            return
          </CharString>
          <CharString index="5">
            rmoveto
            -6 67.00999450683594 125 callgsubr
            -84.99000549316406 249.02000427246094 hhcurveto
            -103 callgsubr
            178 callgsubr
            return
          </CharString>
          <CharString index="6">
            -400.02000427246094 -3.9900054931640625 -262.97999572753906 69 callgsubr
            -257.97999572753906 vvcurveto
            -225.02000427246094 162 -116.97999572753906 187 162 108 callgsubr
            83.97999572753906 60 52.02000427246094 vhcurveto
            return
          </CharString>
          <CharString index="7">
            -116 19 rlineto
            736.0099945068359 vlineto
            36.99000549316406 46 83 182 callgsubr
            85 hhcurveto
            128 30 109 callgsubr
            -188.99000549316406 203 callgsubr
            -105 80 callsubr
            556.0099945068359 -16 callsubr
            vlineto
            272 callgsubr
            -72 callgsubr
            return
          </CharString>
          <CharString index="8">
            rmoveto
            -466 207 -316.97999572753906 475 5 vhcurveto
            421 5 280.97999572753906 160 callgsubr
            480.00999450683594 vvcurveto
            461 -204 295 -475 1 vhcurveto
            -422.99000549316406 -46 callgsubr
            -282.00999450683594 -308 -478.99000549316406 vvcurveto
            372 -39 callsubr
            rmoveto
            441.02000427246094 120.02000427246094 204.99000549316406 267 callsubr
            200 -18 callgsubr
            -185 -435 -442 -121 -225 -200 -199.99000549316406 -119.00999450683594 204.99000549316406 436 vhcurveto
            endchar
          </CharString>
          <CharString index="9">
            -450 -27 rlineto
            553.9900054931641 vlineto
            256 -6 35 -175.99000549316406 rlineto
            146 508.99000549316406 -146 hlineto
            -36.99000549316406 -164.99000549316406 -254 -6 rlineto
            531.9900054931641 vlineto
            404 81 callsubr
            return
          </CharString>
          <CharString index="10">
            29 callgsubr
            156 363 hstemhm
            161.99000549316406 321 callgsubr
            -324.99000549316406 543 callsubr
            hintmask 11110000
            162 1487.990005493164 rmoveto
            -94 338 callsubr
            55 callsubr
            101 -58 callgsubr
            159 callsubr
            -20 callsubr
            -85.02000427246094 -1354.009994506836 -56 callsubr
          </CharString>
          <CharString index="11">
            813 205 callsubr
            170 -252.99000549316406 189 275 callsubr
            29.990005493164062 31 99 92.02000427246094 97 304 callsubr
            141 callgsubr
            vhcurveto
            296 vlineto
            6 -19.009994506835938 -38 117 callgsubr
            -76.99000549316406 hhcurveto
            -279.02000427246094 -253.99000549316406 -211.99000549316406 -278.02000427246094 hvcurveto
            -87.99000549316406 vlineto
            -164 -45.02000427246094 rlineto
            -123 164 -810.9900054931641 vlineto
            return
          </CharString>
          <CharString index="12">
            75 53 -30 -75 callsubr
            12.990005493164062 hvcurveto
            52.02000427246094 -147 rlineto
            180 273 hlineto
            10 -69.02000427246094 -110.99000549316406 52 -203.02000427246094 hhcurveto
            -284 -170 -139.97999572753906 -187 -179.02000427246094 96.00999450683594 -103 179 -11 callgsubr
            hvcurveto
            return
          </CharString>
          <CharString index="13">
            419 callgsubr
            -91 callgsubr
            return
          </CharString>
          <CharString index="14">
            rmoveto
            -104 callsubr
            return
          </CharString>
          <CharString index="15">
            86.02000427246094 108.99000549316406 -32 callsubr
            -64 78.00999450683594 return
          </CharString>
          <CharString index="16">
            -42 vlineto
            -471 vmoveto
            -39 -43 -71 6 callsubr
            -45 hhcurveto
            -93 -64 66 124.99000549316406 85 callgsubr
            75 101.99000549316406 241 1 hvcurveto
            -336 vlineto
            endchar
          </CharString>
          <CharString index="17">
            73.99000549316406 133 rmoveto
            -133 682.9900054931641 133 vlineto
            -93 callgsubr
            -155 -22 rlineto
            return
          </CharString>
          <CharString index="18">
            rlineto
            -104 callsubr
            return
          </CharString>
          <CharString index="19">
            -252 -77 callgsubr
            172.02000427246094 351.97999572753906 40 callgsubr
            -253.00001525878906 39 callgsubr
            -274.97999572753906 254 callsubr
            hintmask 0111101010000000
            151.97999572753906 1497.990005493164 rmoveto
            -89 60 -72.99000549316406 89 116 callgsubr
            hintmask 0111101100000000
            42 callgsubr
            -119.99000549316406 -7 callsubr
            hintmask 0111110010000000
            65 -797 rmoveto
            -101 callsubr
            hintmask 1011101010000000
            -107 callsubr
            hintmask 0111110010000000
            -91 callsubr
          </CharString>
          <CharString index="20">
            -5 callgsubr
            619.0099945068359 31 140.99000549316406 7 callgsubr
            -140.99000549316406 181 -619.0099945068359 rlineto
            return
          </CharString>
          <CharString index="21">
            vlineto
            4 3 callgsubr
            43 12 72.99000549316406 hhcurveto
            307.02000427246094 124.99000549316406 -247 -384.99000549316406 -436.02000427246094 -157 -191 -240 -52 callsubr
            hvcurveto
            167 callgsubr
            -1 -59 17 callgsubr
            -47 17.020004272460938 rrcurveto
            return
          </CharString>
          <CharString index="22">
            129 -109 994 vlineto
            -54 28.020004272460938 rlineto
            -4 hlineto
            268 callsubr
            -28.020004272460938 rlineto
            -124.99000549316406 vlineto
            127 -34 rlineto
            return
          </CharString>
          <CharString index="23">
            -43 308 callsubr
            rlineto
            -1 hlineto
            287 callsubr
            1 callgsubr
            -74 -17 -69 hhcurveto
            -1 364 callgsubr
            -7 218 callgsubr
            220 hvcurveto
            542 298 169 -299.99000549316406 vlineto
            -9.020004272460938 301 rlineto
            -185 hlineto
            -18 -64 -31.990005493164062 -89 -24 -52 205 callgsubr
            -47 168 callgsubr
            -28 -23 -22 -8 -6 -93 -39 -16 -6 rrcurveto
            -117 123 return
          </CharString>
          <CharString index="24">
            739.9799957275391 533 callsubr
            707.9900054931641 1832 241 callgsubr
            18 -708.0200042724609 -1833.979995727539 rlineto
            -606.9900054931641 850.9799957275391 rmoveto
            -135 753.9900054931641 135 vlineto
            -238 24 rlineto
            877 vlineto
            -159 12 callsubr
            -5 hlineto
            -117 -92 -146.99000549316406 -28 callsubr
            -111 -33 -63 callsubr
            -144.02000427246094 rcurveline
            66.00999450683594 11 87 13 81 29 rrcurveto
            -638 vlineto
            -255 -23 rlineto
            return
          </CharString>
          <CharString index="25">
            -234 -42 callgsubr
            490 callgsubr
            179 callsubr
            192.97999572753906 39 callgsubr
            -290.99000549316406 458.99000549316406 hintmask 11111100
            192.97999572753906 -42 callsubr
            286 callsubr
            116 callgsubr
            504.02000427246094 526 callsubr
            88.99000549316406 95 callgsubr
            -7 callsubr
            -561.0099945068359 -1987.990005493164 -78 callsubr
            hintmask 11111010
            -106 callgsubr
            hintmask 11111100
            -241 vlineto
            endchar
          </CharString>
          <CharString index="26">
            144.99000549316406 262 -51 callgsubr
            759.9999847412109 208.00999450683594 -40.959991455078125 -74 callsubr
            return
          </CharString>
          <CharString index="27">
            595 callsubr
            13 callsubr
            -92 callsubr
            return
          </CharString>
          <CharString index="28">
            159.99000549316406 return
          </CharString>
          <CharString index="29">
            rmoveto
            -12 26.990005493164062 70 74 callsubr
            204 callsubr
            hhcurveto
            234.99000549316406 127 173 309 114.00999450683594 hvcurveto
            return
          </CharString>
          <CharString index="30">
            -66 callgsubr
            1220.989990234375 141 return
          </CharString>
          <CharString index="31">
            -83.99000549316406 -102.02000427246094 hvcurveto
            return
          </CharString>
          <CharString index="32">
            -25.990005493164062 return
          </CharString>
          <CharString index="33">
            40.96000671386719 return
          </CharString>
          <CharString index="34">
            -272 vlineto
            -19 75 156.02000427246094 -63.97999572753906 127 callgsubr
            hhcurveto
            322.00999450683594 146 17 callsubr
            190 212 -173.02000427246094 117 callsubr
            -175 77 hvcurveto
            -133 59 -128 40 110 vvcurveto
            70 55 53 111 vhcurveto
            return
          </CharString>
          <CharString index="35">
            -191 -1042 rmoveto
            -4 33.02000427246094 35.97999572753906 -3 40 hhcurveto
            184 hlineto
            155 48 59 callsubr
            -119.00999450683594 -152 -139 -70 -128 hvcurveto
            -2 hlineto
            -182 -74 92.02000427246094 -39 callgsubr
            69 13 48 16 34 hvcurveto
            endchar
          </CharString>
          <CharString index="36">
            rmoveto
            -37 59 callgsubr
            -58 -40 -82 hhcurveto
            -129.99000549316406 -95.00999450683594 124 294 4 hvcurveto
            337 3 10 callgsubr
            305 callgsubr
            306 callsubr
            hhcurveto
            64 57 -21.020004272460938 -44 callgsubr
            17 hvcurveto
            -745 vlineto
            endchar
          </CharString>
          <CharString index="37">
            vstem
            -37 -275 rmoveto
            143 callgsubr
            339 callsubr
            277.00999450683594 51 191 156 -45 callsubr
            226.97999572753906 rlinecurve
            24 345 callgsubr
            151 callsubr
            186 240 vvcurveto
            784 453 callsubr
            -671 212 callsubr
            -937 vlineto
            -227 56 callgsubr
            -100 -27 -87 vhcurveto
            -49 175 callsubr
            return
          </CharString>
          <CharString index="38">
            517 0 158.49000549316406 260.489990234375 159 116.02000427246094 163.49000549316406 310.5 465 callgsubr
            382 callsubr
            167 callsubr
            -144.50001525878906 144.50999450683594 hstemhm
            -165 560.9799957275391 480 callsubr
            291.00999450683594 146 hintmask 1110010110000000
            655.9900054931641 449 callgsubr
            1198 vlineto
            70 377 -185 53 -133.02000427246094 -258 -455.99000549316406 -27 rlineto
            552 vlineto
            256 -6 35 552 callsubr
            rlineto
            146 505.02000427246094 -147 hlineto
            -35 -163 -255 -7 rlineto
            532.9900054931641 vlineto
            407 -19 rlineto
            hintmask 1111000110000000
            70 -199.99000549316406 rlineto
            162 hlineto
            hintmask 1110011110000000
            -28 354 rlineto
            -1535 -141 hlineto
            205 callsubr
            -28 -499.97999572753906 -1193 -144.02000427246094 -28 rlineto
            -131.99000549316406 560.9900054931641 -79 callgsubr
            vlineto
            -149 -47 callsubr
            97 261 rlineto
            469.00999450683594 -261.97999572753906 hlineto
            hintmask 1110010110000000
            -157 -25 rlineto
            -253 446 rmoveto
            194 519 rlineto
            hintmask 1110100110000000
            104 276 rlineto
            112 -795.0099945068359 hlineto
            hintmask 1110010110000000
            -410.00999450683594 hlineto
            endchar
          </CharString>
          <CharString index="39">
            42 -12 140 -128 128 582.9799957275391 153 535 470 callgsubr
            334 388 334 -263 369 hintmask 00000000
            hintmask 01110100
            -36 callsubr
            322.00999450683594 vlineto
            139 61 -12 140.99000549316406 hhcurveto
            hintmask 10110101
            508 147 211.99000549316406 259.00999450683594 227.99000549316406 -174 130 -259.00999450683594 -2 hvcurveto
            hintmask 10110110
            189 30 138 137.02000427246094 127 callgsubr
            vvcurveto
            216 -129 130 -443 vhcurveto
            hintmask 01101100
            -104 -92 -13 -128 hhcurveto
            -314 -141 hlineto
            -51 callgsubr
            -28 126 callgsubr
            hintmask 01110100
            -156 -26 rlineto
            hintmask 10110110
            491.00999450683594 734 rmoveto
            521.0099945068359 vlineto
            4 23 72 6 44 hhcurveto
            179 69 -11 callgsubr
            -171 -180 -64 -105 -163 -47.99000549316406 -74.02000427246094 0 4 2 callsubr
            hvcurveto
            -1 -722 rmoveto
            586 callsubr
            vlineto
            -39 callsubr
            38 79 1 18 callgsubr
            hhcurveto
            hintmask 10110101
            194 87 -74 -204 -188.99000549316406 -82 -116 -215 hvcurveto
            hintmask 10110110
            -59 -76 17 callgsubr
            218 callgsubr
            -27 hvcurveto
            endchar
          </CharString>
          <CharString index="40">
            84 callsubr
            168.010009765625 351.97999572753906 571 callsubr
            -209.99000549316406 39 callgsubr
            -220.99000549316406 353.00999450683594 hintmask 00000000
            hintmask 11101100
            203.97999572753906 1497.990005493164 rmoveto
            -89 60 -72.99000549316406 89 vhcurveto
            1 hlineto
            132 -49 callgsubr
            hintmask 11010010
            -72 -330 -106 callsubr
          </CharString>
          <CharString index="41">
            24.990005493164062 return
          </CharString>
          <CharString index="42">
            107 callgsubr
            hintmask 11101000
            588 -62 callgsubr
            return
          </CharString>
          <CharString index="43">
            -103 -496 128 345 192 callsubr
            hstemhm
            185.99000549316406 578 callgsubr
            344 hintmask 11011100
            634.9799957275391 -23 rmoveto
            394.02000427246094 211.99000549316406 294.97999572753906 495 callgsubr
            401 -202 161 -242 -148 99 callgsubr
            -79.99000549316406 -73.02000427246094 -58 hvcurveto
            85 callgsubr
            vlineto
            317 callsubr
            2 callgsubr
            321 callsubr
            hlineto
            -354.97999572753906 -46 rlineto
            -158 vlineto
            122 -40 rlineto
            -1264.979995727539 vlineto
            -129 -25.009994506835938 rlineto
            -128 627 128 vlineto
            -178 141 callgsubr
            rlineto
            hintmask 10111100
            172 vlineto
            -6 166 rlineto
            hintmask 11011100
            284 callsubr
            29.990005493164062 142 callsubr
            -10 47.99000549316406 hhcurveto
            -128.99000549316406 930.9799957275391 rmoveto
            35 31.990005493164062 63 37 236 callsubr
            hhcurveto
            151 callgsubr
            96.00999450683594 -47 callgsubr
            -290 -3 hvcurveto
            -341.00999450683594 -22 callgsubr
            -116 -117 -137 hhcurveto
            -65 317 callsubr
            23 24 -17 hvcurveto
            749 vlineto
            endchar
          </CharString>
          <CharString index="44">
            43.99000549316406 return
          </CharString>
          <CharString index="45">
            158 -21 callgsubr
            -525.9900054931641 -30 callgsubr
            175.99000549316406 -27 rlineto
            -947 vlineto
            -109 232 -582 883 rlineto
            -499 -141 hlineto
            162 74 callgsubr
            return
          </CharString>
          <CharString index="46">
            190 callgsubr
            106 callsubr
            -45 callsubr
            -71 88 vhcurveto
            0.9900054931640625 398 callgsubr
            361 callsubr
            69 callgsubr
            -56.970001220703125 -76 callsubr
            527.9700012207031 155 callgsubr
            -47 callgsubr
            465 callsubr
            -76 callsubr
            -427.99000549316406 -1677 rmoveto
            return
          </CharString>
          <CharString index="47">
            -59 callsubr
            endchar
          </CharString>
          <CharString index="48">
            rmoveto
            -736.0099945068359 vlineto
            -173 88 -11 callgsubr
            181 vhcurveto
            331 callsubr
            151 165 59 58 70 hvcurveto
            -84 callsubr
            vlineto
            return
          </CharString>
          <CharString index="49">
            1 228 callgsubr
            -133 11 rlineto
            142 callsubr
            vlineto
            370.00999450683594 383 110.99000549316406 394 callgsubr
            -584.9900054931641 vlineto
            -145 -22 rlineto
            -133 609.0200042724609 133 vlineto
            -138.02000427246094 3 callgsubr
            rlineto
            return
          </CharString>
          <CharString index="50">
            -105 -45.99000549316406 -83.99000549316406 -109 -118 vvcurveto
            -180 144 -138 394 vhcurveto
            1 hlineto
            324 316 173 271.00999450683594 217.99000549316406 -144 98 -282 hvcurveto
            -204 hlineto
            return
          </CharString>
          <CharString index="51">
            -65 callsubr
            hintmask 11110000
            374 callgsubr
          </CharString>
          <CharString index="52">
            rmoveto
            222 callgsubr
            -167 26 rlineto
            305 callsubr
            575 -532.0099945068359 vlineto
            -153 -52 callgsubr
            642.9900054931641 -100 callgsubr
            -151.97999572753906 25 rlineto
            1194 vlineto
            151.97999572753906 -21 callgsubr
            -645 -30 callgsubr
            155.02000427246094 -29 rlineto
            -490.99000549316406 -575 492 vlineto
            167 -21 callgsubr
            -652 -30 callgsubr
            -39 callgsubr
            74 callgsubr
            -151.99000549316406 -25 rlineto
            endchar
          </CharString>
          <CharString index="53">
            575 callsubr
            216 callsubr
            146 callsubr
            -69.97999572753906 465 callsubr
            371 callgsubr
            vhcurveto
            71.99000549316406 -115 rlineto
            43 55 109 31.990005493164062 426 callsubr
            -40 71 callsubr
            68 callsubr
            -71 -51 -86 569 callsubr
            -47 -20 -54 -17 -37 -6.9900054931640625 270 callsubr
            -116 rcurveline
            10 callgsubr
            34 rlineto
            return
          </CharString>
          <CharString index="54">
            66 -78 -122 34 -175 317 callgsubr
            -276.00999450683594 -235.99000549316406 -143 319 callgsubr
            -157 64.99000549316406 -124 156.02000427246094 -62 hvcurveto
            return
          </CharString>
          <CharString index="55">
            -2.9900054931640625 return
          </CharString>
          <CharString index="56">
            232.97999572753906 return
          </CharString>
          <CharString index="57">
            270 callsubr
            48 83 41 82 hhcurveto
            128 29.990005493164062 109 callgsubr
            -188.99000549316406 203 callgsubr
            -105.99000549316406 81 callsubr
            -133 558 133 vlineto
            -122 -16 callgsubr
            rlineto
            556.0099945068359 vlineto
            70 318 callsubr
            62 190 callgsubr
            54 vhcurveto
            35.97999572753906 227 callsubr
            78 40.02000427246094 337 callgsubr
            hhcurveto
            151 callgsubr
            35 109 callgsubr
            -196 hvcurveto
            -549 vlineto
            -93 81 callsubr
            -133 547 133 vlineto
            -124.99000549316406 458 callgsubr
            rlineto
            558 vlineto
            313.02000427246094 -86 139 -248 -150 -156 109 callgsubr
            -81 -85.00999450683594 vhcurveto
            105 -47 -87 49 -149 hhcurveto
            -117 -198 -70 -90.00999450683594 -91 hvcurveto
            1 47 304 callgsubr
            vlineto
            -54 2 callgsubr
            -5 hlineto
            -361 -46 rlineto
            -158 vlineto
            123 -40 rlineto
            -770 vlineto
            return
          </CharString>
          <CharString index="58">
            rmoveto
            -82 43 1 callgsubr
            99.99000549316406 111 92 23 11.979995727539062 50 vhcurveto
            return
          </CharString>
          <CharString index="59">
            -44 vlineto
            -96.99000549316406 -63 callsubr
            -18 68 callgsubr
            87 108.99000549316406 -6 callgsubr
            12.979995727539062 62.02000427246094 vhcurveto
            132 -107 1493.009994506836 vlineto
            -63 47 rlineto
            -8 40 callsubr
            return
          </CharString>
          <CharString index="60">
            25.990005493164062 return
          </CharString>
          <CharString index="61">
            281 callsubr
            -112.99000549316406 410 callgsubr
            return
          </CharString>
          <CharString index="62">
            59.99000549316406 return
          </CharString>
          <CharString index="63">
            175 35 157 callgsubr
            115 235 vvcurveto
            322 callgsubr
            -214 112 -362 286 callgsubr
            -230 -58 -5 -86 vhcurveto
            29 -336 rlineto
            187 hlineto
            48 191 rlineto
            189 callsubr
            17 -45 callsubr
            34.02000427246094 111 hhcurveto
            109 callsubr
            104 285 callsubr
            -165.99000549316406 -46 callgsubr
            hvcurveto
            -219 1 -138 -81 239 callgsubr
            hhcurveto
            -114.02000427246094 -153 135 hlineto
            return
          </CharString>
          <CharString index="64">
            -551.9900054931641 -51 callgsubr
            384 222 189.97999572753906 143 callsubr
            388.02000427246094 246.99000549316406 228 callsubr
            76 callsubr
            return
          </CharString>
          <CharString index="65">
            1497.990005493164 rmoveto
            -89 60 -72.99000549316406 return
          </CharString>
          <CharString index="66">
            -52 0 124 callsubr
            384 138 729 124 -124 136 282 callsubr
            403.97999572753906 348.99000549316406 192 callgsubr
            759.0099945068359 -100 callgsubr
            456 callgsubr
            26 rlineto
            378 vlineto
            -3.9900054931640625 17 230 callsubr
            -3.0200042724609375 62 hhcurveto
            385 225 204 347.00999450683594 249 callgsubr
            hvcurveto
            hintmask 11101100
            366 callgsubr
            -83 -12 -101 hhcurveto
            -306 106 callgsubr
            hintmask 11011100
            332 callgsubr
            630.0099945068359 535.0200042724609 rmoveto
            -75 -34 4 6 -28 hvcurveto
            706.9900054931641 vlineto
            3 33 -16 callgsubr
            9 78 hhcurveto
            180 93 125 callsubr
            -228 -313 -122 -92 -145 hvcurveto
            endchar
          </CharString>
          <CharString index="67">
            -80 callsubr
            442 callgsubr
            136 callgsubr
            return
          </CharString>
          <CharString index="68">
            1.9900054931640625 return
          </CharString>
          <CharString index="69">
            -90.00999450683594 -106.99000549316406 return
          </CharString>
          <CharString index="70">
            695 214 callsubr
            1247 141 -109.989990234375 110 hstemhm
            385 callsubr
            489 callgsubr
            hintmask 11010000
            -5 -95 callgsubr
            588.9799957275391 473 callsubr
            26 65 881.0099945068359 rlineto
            hintmask 10110000
            24 371 88 -363 268 callgsubr
            -990.9900054931641 rlineto
            245 hlineto
            275 1064.979995727539 59 283.02000427246094 39 -366 103 -881 -169 140 callgsubr
            685 -100 callgsubr
            -169.99000549316406 26 rlineto
            hintmask 11010000
            -178.02000427246094 1192 217 153 callgsubr
            -669 vlineto
            -219 -885 345 callsubr
            -194 -36.99000549316406 194 -261 885 rlineto
            -662.0200042724609 -141 hlineto
            201.02000427246094 -28 -139 -1194 -172.99000549316406 -25 rlineto
            endchar
          </CharString>
          <CharString index="71">
            76.97999572753906 -95 callgsubr
            return
          </CharString>
          <CharString index="72">
            161 123 callgsubr
            140 -23.990005493164062 -198 -320 rlineto
            -194 318 hlineto
            129 -1 callsubr
            -583.9900054931641 -131 vlineto
            151 callgsubr
            -12 callgsubr
            -829.0099945068359 vlineto
            -132 80 callsubr
            615 -100 callgsubr
            -158 19 rlineto
            377 vlineto
            112 -41 callgsubr
            rlineto
            return
          </CharString>
          <CharString index="73">
            1925.979995727539 rmoveto
            279.97999572753906 -279.97999572753906 rlineto
            203.02000427246094 hlineto
            291.97999572753906 279.97999572753906 -110 88 -284 -177.99000549316406 -269 166 callsubr
            return
          </CharString>
          <CharString index="74">
            -563 -77 callsubr
            140.010009765625 512 callgsubr
            244.97999572753906 363 -351.97999572753906 190 callsubr
            hintmask 00000000
            hintmask 10111000
            244.97999572753906 9 callsubr
            68.02000427246094 238 callgsubr
            96.99000549316406 89 callsubr
            286 callgsubr
            -1684 rmoveto
            hintmask 01110100
            -104 callsubr
            674 vlineto
            hintmask 10110100
            -79 callgsubr
            vlineto
            hintmask 01110100
            -94 callgsubr
            hintmask 10111000
            290 callsubr
          </CharString>
          <CharString index="75">
            89.99000549316406 return
          </CharString>
          <CharString index="76">
            -284 -23 -20 callgsubr
            347 141 return
          </CharString>
          <CharString index="77">
            283 callgsubr
            1 398 callgsubr
            -110.99000549316406 hvcurveto
            -1 hlineto
            69 callgsubr
            62 callgsubr
            -120 -56 -76 callsubr
            return
          </CharString>
          <CharString index="78">
            48 callsubr
            612.9900054931641 262 callsubr
            434 callsubr
            hlineto
            -62 callsubr
            -162 -25 rlineto
            return
          </CharString>
          <CharString index="79">
            -49.99000549316406 return
          </CharString>
          <CharString index="80">
            10.020004272460938 135 -16 callsubr
            152 vvcurveto
            106 return
          </CharString>
          <CharString index="81">
            vhcurveto
            1 hlineto
            134 63 72.99000549316406 108.02000427246094 86 return
          </CharString>
          <CharString index="82">
            182 callgsubr
            2 427.99000549316406 11 122 2 rrcurveto
            -376.00999450683594 -10 -154 -193 -219 hhcurveto
            -127 -32 44 31.990005493164062 189 callgsubr
            hvcurveto
            -80 234 -216 56 callgsubr
            13 -363.00999450683594 rlineto
            -52 callsubr
            369 callsubr
            85 callgsubr
            -68.99000549316406 227.99000549316406 hhcurveto
            471.02000427246094 308 365 callsubr
            483 460 457 callgsubr
            319 -464 -278 381 callsubr
            -70 74 callsubr
            -116 hvcurveto
            7 -359.02000427246094 202 2 71 212.99000549316406 rlineto
            38 30 44.02000427246094 256 callsubr
            151 callgsubr
            hhcurveto
            222 122 -234.99000549316406 -295.02000427246094 28 hvcurveto
            return
          </CharString>
          <CharString index="83">
            107 callgsubr
            hintmask 11011001
            515 callsubr
            hlineto
            -58 callsubr
            828.0099945068359 vlineto
            hintmask 10111001
            -14 callsubr
            hintmask 11011001
            475 callgsubr
            hintmask 10111001
            73 callsubr
            hintmask 11011001
            151 callgsubr
            -50 callgsubr
            -829.0099945068359 vlineto
            hintmask 10110110
            418 callsubr
          </CharString>
          <CharString index="84">
            -93 callsubr
            455 callgsubr
            -100 callgsubr
            -135 20 rlineto
            1482 vlineto
            371 callsubr
            44 rlineto
            -5 hlineto
            -404.00999450683594 149 callgsubr
            return
          </CharString>
          <CharString index="85">
            143.99000549316406 return
          </CharString>
          <CharString index="86">
            107.99000549316406 return
          </CharString>
          <CharString index="87">
            -25 callgsubr
            hvcurveto
            return
          </CharString>
          <CharString index="88">
            -387.02000427246094 -28 callsubr
            -22 callgsubr
            -157 76 callgsubr
            -43 return
          </CharString>
          <CharString index="89">
            -60.99000549316406 return
          </CharString>
          <CharString index="90">
            169 callsubr
            56 callgsubr
            -29 7 -34 hhcurveto
            -198 -137 -186 -76 -23 hvcurveto
            -5 hlineto
            5 158 rlineto
            58 vlineto
            -59 2 callgsubr
            -5 hlineto
            -334.99000549316406 -46 rlineto
            -158 vlineto
            121 -40 rlineto
            -769 vlineto
            return
          </CharString>
          <CharString index="91">
            135.99000549316406 return
          </CharString>
          <CharString index="92">
            62.99000549316406 350.97999572753906 413.00999450683594 353.00999450683594 return
          </CharString>
          <CharString index="93">
            129 -78 callgsubr
            -600 -131 vlineto
            145 -50 callgsubr
            -59 vlineto
            -365 -378 -116 -152 rlineto
            return
          </CharString>
          <CharString index="94">
            -79.00999450683594 -7 callgsubr
            return
          </CharString>
          <CharString index="95">
            rmoveto
            72 callsubr
            906 606 callsubr
            199 callsubr
            hintmask 0110110010000000
            177 callsubr
            hintmask 1001110010000000
            -156 -52 callgsubr
            661.0200042724609 -100 callgsubr
            hintmask 0101110010000000
            83 callsubr
            hintmask 1001110010000000
            135 callsubr
            hintmask 0110110010000000
            -157.99000549316406 26 rlineto
            1193 606 callsubr
            198 callsubr
            hintmask 1010110010000000
            162 -28 rlineto
            -43 vlineto
            endchar
          </CharString>
          <CharString index="96">
            -158 -63 18 88 -66 callsubr
            10.020004272460938 41 16 32 hvcurveto
            229 callgsubr
            48 7 callsubr
            -4 61 hhcurveto
            return
          </CharString>
          <CharString index="97">
            -93 callsubr
            406 callgsubr
            133.97999572753906 vlineto
            -100 callsubr
            -116 -18 rlineto
            return
          </CharString>
          <CharString index="98">
            rmoveto
            -410.99000549316406 2 203 callsubr
            -184.99000549316406 307 hhcurveto
            374 326 440 callgsubr
            523.9900054931641 499.02000427246094 -271.00999450683594 203 callsubr
            -390 -285.97999572753906 -152 -74 -5 -115 hvcurveto
            -3 -328.00999450683594 215 190 callgsubr
            48 174 rlineto
            56 34 79 47 129 hhcurveto
            208.02000427246094 380 callgsubr
            -221 -357 14 hvcurveto
            -906 2 rlineto
            -12 -51 -6 -72 -127 vvcurveto
            927.9900054931641 87 rmoveto
            -367 -5 -108 -153 -190 hhcurveto
            -220 -69 235 179 41 2 29 -39 callsubr
            37 hvcurveto
            588 -1 rlineto
            endchar
          </CharString>
          <CharString index="99">
            271 callgsubr
            68.02000427246094 225 callsubr
            -1 hlineto
            -357.99000549316406 -430 rlineto
            return
          </CharString>
          <CharString index="100">
            -57 -37 callgsubr
            return
          </CharString>
          <CharString index="101">
            66.99000549316406 return
          </CharString>
          <CharString index="102">
            158.99000549316406 return
          </CharString>
          <CharString index="103">
            -62 25 callgsubr
            468 callgsubr
            hintmask 11100000
            254 callsubr
            133.97999572753906 171 callsubr
            hintmask 11010000
            -80 callgsubr
            hintmask 11100000
            218 callsubr
          </CharString>
          <CharString index="104">
            423 callsubr
            253 909.9799957275391 203 callsubr
            -909.9799957275391 rlineto
            303 hlineto
            hintmask 01011101
            387.00999450683594 70 callsubr
            545 callgsubr
            -908 3 callsubr
            hintmask 00111110
            315 callgsubr
            -247 907 168.02000427246094 387 callsubr
            -642 -30 callgsubr
            hintmask 10011110
            -18 callgsubr
            -30 rlineto
            endchar
          </CharString>
          <CharString index="105">
            43 43.989990234375 43 -41.989990234375 43 hstemhm
            return
          </CharString>
          <CharString index="106">
            12 callsubr
            131 return
          </CharString>
          <CharString index="107">
            -48.99000549316406 return
          </CharString>
          <CharString index="108">
            12 callgsubr
            -1 hlineto
            return
          </CharString>
          <CharString index="109">
            -37.99000549316406 return
          </CharString>
          <CharString index="110">
            -35 -213 -43 213 -247.99000549316406 908 189.99000549316406 153 callgsubr
            -666.9900054931641 -30 callgsubr
            128 -29 58 -176 rlineto
            return
          </CharString>
          <CharString index="111">
            -39 callgsubr
            rcurveline
            -1 hlineto
            -313 -311.99000549316406 rlineto
            return
          </CharString>
          <CharString index="112">
            144 callsubr
            461 callsubr
            290 373 408 148 211.99000549316406 246.99000549316406 302 callsubr
            -34 16 callsubr
            18 hvcurveto
            18 callgsubr
            -261 rlineto
            234 hlineto
            24 389 rlineto
            17 109 callgsubr
            544 callgsubr
            47 -217 hhcurveto
            54 callsubr
            return
          </CharString>
          <CharString index="113">
            -26.009994506835938 return
          </CharString>
          <CharString index="114">
            54.99000549316406 return
          </CharString>
          <CharString index="115">
            -54 121 rlineto
            -1053 hlineto
            0 callsubr
            -410.99000549316406 170 callgsubr
            -25 118 276 486.02000427246094 27 -117 -133 -748.0099945068359 -1141 rlineto
            endchar
          </CharString>
          <CharString index="116">
            1817.990005493164 rmoveto
            68 callsubr
            return
          </CharString>
          <CharString index="117">
            1146.979995727539 hmoveto
            402 -33 callgsubr
            -92 26 -77 37 -257.97999572753906 564 -188 169 rlinecurve
            372 423 174 29 rlineto
            140 -572.9900054931641 vlineto
            -46 callgsubr
            -141 163 -28 -500 -641 rlineto
            640 vlineto
            148 153 callgsubr
            -643.0099945068359 -30 callgsubr
            157 -28 126 callgsubr
            -157.99000549316406 -52 callgsubr
            669.9900054931641 -100 callgsubr
            -174 25 rlineto
            343 vlineto
            166 196 rlineto
            -193 147 180 -505 413 callsubr
            hhcurveto
            return
          </CharString>
          <CharString index="118">
            rmoveto
            48 -27 callsubr
            -66 -45 callsubr
            return
          </CharString>
          <CharString index="119">
            -47 callsubr
            rlineto
            return
          </CharString>
          <CharString index="120">
            65.99000549316406 return
          </CharString>
          <CharString index="121">
            -100 -49 -63 -90.99000549316406 -92 vvcurveto
            -74.00999450683594 7 callgsubr
            -57 65 2 callsubr
            vhcurveto
            return
          </CharString>
          <CharString index="122">
            172 callsubr
            -284 -177.99000549316406 -269 504 callsubr
            return
          </CharString>
          <CharString index="123">
            -19.990005493164062 return
          </CharString>
          <CharString index="124">
            154.99000549316406 return
          </CharString>
          <CharString index="125">
            -1217.990005493164 -461.99000549316406 rmoveto
            -236 -16 callsubr
            -198 253 231 368 callgsubr
            158 288.02000427246094 244 -106.99000549316406 82 callgsubr
            -284.02000427246094 -234.99000549316406 -190 -163 383 callgsubr
            vhcurveto
            548.9900054931641 17 callgsubr
            rmoveto
            -174 59 callgsubr
            -128 -110.97999572753906 -107 -32 320 callgsubr
            434 callgsubr
            174 33 128.99000549316406 111 385 callsubr
            30 339 callgsubr
            -159 1 vhcurveto
            return
          </CharString>
          <CharString index="126">
            rmoveto
            -301 -272 -199 -404.00999450683594 -365 200.99000549316406 -222.97999572753906 343 302 271.02000427246094 187.97999572753906 415 365 -201.02000427246094 223 -343 hvcurveto
            -221 -522.0099945068359 rmoveto
            261.02000427246094 8 68 169 callgsubr
            129 hhcurveto
            135 59 -134 -245 11 hvcurveto
            -410.00999450683594 hlineto
            412 -108 rmoveto
            383 callgsubr
            -52 callsubr
            -65 -130 -134 hhcurveto
            -141 -63 -39 callgsubr
            270 -7 hvcurveto
            413 hlineto
            endchar
          </CharString>
          <CharString index="127">
            414 callgsubr
            vstem
            1065.979995727539 1870.990005493164 rmoveto
            -483 -386.99000549316406 -384 -485.00999450683594 -486.99000549316406 525 callsubr
            -385 483 484 383 385 486.99000549316406 485.00999450683594 -383 384 -484 hvcurveto
            -1605 vmoveto
            -402.99000549316406 -309 386 callsubr
            407 401 305.99000549316406 438 callgsubr
            406 403 307 -328.99000549316406 -406.02000427246094 -402.99000549316406 -307 -333 -403 hvcurveto
            return
          </CharString>
          <CharString index="128">
            -25 14 callgsubr
            -162.99000549316406 157 callgsubr
            868 54 callgsubr
            return
          </CharString>
          <CharString index="129">
            -190.02000427246094 rlineto
            -16 35 63 139 callgsubr
            return
          </CharString>
          <CharString index="130">
            361 callgsubr
            137.02000427246094 301 callsubr
            return
          </CharString>
          <CharString index="131">
            8 -39 -45.02000427246094 6 59 callsubr
            hhcurveto
            -400 -210 -289.00999450683594 -336 return
          </CharString>
          <CharString index="132">
            563 callsubr
            192 1158.979995727539 rmoveto
            -175.99000549316406 98 -164 0 callgsubr
            vhcurveto
            1 hlineto
            89 69 63 99 callsubr
            hvcurveto
            150 -133 151 callsubr
            182 vvcurveto
            215 callgsubr
            87 85 callgsubr
            46 240 callsubr
            vhcurveto
            33 vlineto
            71 callsubr
            71.99000549316406 rlineto
            -22 callgsubr
            hlineto
            -124.00999450683594 -64.99000549316406 -188.99000549316406 -229 455 callsubr
            vvcurveto
            return
          </CharString>
          <CharString index="133">
            rmoveto
            -21.990005493164062 47 106 -16 83 hhcurveto
            245.99000549316406 78 187.97999572753906 164 67.00999450683594 hvcurveto
            return
          </CharString>
          <CharString index="134">
            146.49000549316406 1234.489990234375 141 return
          </CharString>
          <CharString index="135">
            142 callgsubr
            -68 187 callsubr
            53 -176.99000549316406 hhcurveto
            return
          </CharString>
          <CharString index="136">
            106 -15.990005493164062 79 callsubr
            return
          </CharString>
          <CharString index="137">
            357 -33 callgsubr
            -83 26 -104 36 368 callsubr
            534 -259.02000427246094 100 callgsubr
            rlinecurve
            384 539 172.02000427246094 -21 callgsubr
            -555.0099945068359 -30 callgsubr
            136 -29 return
          </CharString>
          <CharString index="138">
            1676.979995727539 rmoveto
            191 callgsubr
            163 56 callsubr
            262 return
          </CharString>
          <CharString index="139">
            60 callsubr
            102 callgsubr
            return
          </CharString>
          <CharString index="140">
            58 -40 callgsubr
            return
          </CharString>
          <CharString index="141">
            32 callsubr
            1 hlineto
            133 59 81 106 82 return
          </CharString>
          <CharString index="142">
            155.99000549316406 179 callgsubr
            return
          </CharString>
          <CharString index="143">
            -104 callsubr
            vlineto
            hintmask 01110100
            674 hlineto
            hintmask 10110100
            -79 callgsubr
            vlineto
            hintmask 01110100
            -94 callgsubr
            return
          </CharString>
          <CharString index="144">
            -7 28 40 -6 41 hhcurveto
            302 callsubr
            18 callgsubr
            81.02000427246094 35 hvcurveto
            -45 callsubr
            462 callgsubr
            230 callsubr
            281.00999450683594 361 vvcurveto
            104 279 vlineto
            return
          </CharString>
          <CharString index="145">
            371.99000549316406 639.9999847412109 371.99000549316406 return
          </CharString>
          <CharString index="146">
            1615.990005493164 rmoveto
            -196 618 196 -618 vlineto
            return
          </CharString>
          <CharString index="147">
            hlineto
            -442 -43 rlineto
            -128 vlineto
            193 -50 callgsubr
            -329.00999450683594 vlineto
            return
          </CharString>
          <CharString index="148">
            131 callgsubr
            89 -74 callgsubr
            69 callgsubr
            -57 -84.99000549316406 -105 hvcurveto
            hintmask 11101001
            return
          </CharString>
          <CharString index="149">
            rmoveto
            47.99000549316406 -27 callsubr
            167 callgsubr
            -45 callsubr
            -94 vhcurveto
            229 callgsubr
            259 callsubr
            return
          </CharString>
          <CharString index="150">
            293 callgsubr
            435 callsubr
            2 callgsubr
            -5 hlineto
            -394 -57 callgsubr
            return
          </CharString>
          <CharString index="151">
            -32 callsubr
            68.99000549316406 116.99000549316406 87.02000427246094 -64 79.99000549316406 return
          </CharString>
          <CharString index="152">
            360 callsubr
            -79 callsubr
            return
          </CharString>
          <CharString index="153">
            -93 callsubr
            565 -100 callgsubr
            -210 25 rlineto
            1052 vlineto
            return
          </CharString>
          <CharString index="154">
            1487.990005493164 rmoveto
            -94 71 55 callsubr
            return
          </CharString>
          <CharString index="155">
            46 callsubr
            136 -274 return
          </CharString>
          <CharString index="156">
            31 callsubr
            271.00999450683594 119 callgsubr
            vhcurveto
            -217 447 callsubr
            362 callsubr
            -47.99000549316406 -91 69 callgsubr
            -47 callgsubr
            261 callgsubr
            return
          </CharString>
          <CharString index="157">
            356 372 callsubr
            199 hstem
            -35 callgsubr
            1482.990005493164 vstem
            -35 callgsubr
            34 rmoveto
            19 345 callsubr
            rlineto
            1443 hlineto
            3 callgsubr
            36 -752 1479 rlineto
            -45 hlineto
            -686 -1482 rlineto
            1055.990005493164 187 callgsubr
            rmoveto
            -785.9900054931641 hlineto
            372.99000549316406 842 413 -842 rlineto
            endchar
          </CharString>
          <CharString index="158">
            rmoveto
            186 46 554 callsubr
            495 callgsubr
            0 callgsubr
            hlineto
            -92 23 270 callgsubr
            319 callsubr
            -87 344 -203.02000427246094 99.99000549316406 rlinecurve
            return
          </CharString>
          <CharString index="159">
            -63 47 rlineto
            -8 hlineto
            -442 -43 rlineto
            -128 vlineto
            193 -50 callgsubr
            return
          </CharString>
          <CharString index="160">
            -6 callsubr
            334 345.989990234375 229 callsubr
            return
          </CharString>
          <CharString index="161">
            -477 -317.00999450683594 -289.02000427246094 -507 hvcurveto
            return
          </CharString>
          <CharString index="162">
            -72.00999450683594 return
          </CharString>
          <CharString index="163">
            -150.02000427246094 return
          </CharString>
          <CharString index="164">
            1661.990005493164 rmoveto
            67.00999450683594 -116 250.99000549316406 542 callgsubr
            120 100 -356.99000549316406 430 rlineto
            -1 hlineto
            -194 -175 rlineto
            return
          </CharString>
          <CharString index="165">
            -66.99000549316406 return
          </CharString>
          <CharString index="166">
            -42.99000549316406 return
          </CharString>
          <CharString index="167">
            -57 -76 callsubr
            return
          </CharString>
          <CharString index="168">
            320 -592 rmoveto
            36.99000549316406 319 callsubr
            158 callgsubr
            40 76 hhcurveto
            134 68 callgsubr
            217 callsubr
            -283 -2 hvcurveto
            -312.00999450683594 -52 callsubr
            384 callsubr
            286 callgsubr
            75 callgsubr
            hhcurveto
            -69 -55 -16 callgsubr
            29 -13 hvcurveto
            742.0099945068359 vlineto
            endchar
          </CharString>
          <CharString index="169">
            47 callsubr
            241 callsubr
            595 callsubr
            return
          </CharString>
          <CharString index="170">
            -454 203 -185.97000122070312 424 return
          </CharString>
          <CharString index="171">
            -104 callsubr
            557 -100 callgsubr
            217 callsubr
            20 rlineto
            737 565 callsubr
            104 callsubr
            71 callsubr
            410 callsubr
            hvcurveto
            -556.0099945068359 103 callgsubr
            return
          </CharString>
          <CharString index="172">
            72 callgsubr
            71 callgsubr
            hintmask 11110000
            return
          </CharString>
          <CharString index="173">
            -105 callgsubr
            515.010009765625 136 613.989990234375 136 -53.94999694824219 -74 callsubr
            return
          </CharString>
          <CharString index="174">
            -41 callgsubr
            hlineto
            return
          </CharString>
          <CharString index="175">
            -89.99000549316406 return
          </CharString>
          <CharString index="176">
            123 -78 callgsubr
            -489 -131 vlineto
            163 -75 callsubr
            -240.99000549316406 -628 6 callsubr
            -89 189 callgsubr
            88 -237.02000427246094 630.0099945068359 163 -78 callgsubr
            -635.9799957275391 -131 vlineto
            112.97999572753906 -44 callgsubr
            return
          </CharString>
          <CharString index="177">
            1360.9700012207031 129 387 callsubr
            -503.00999450683594 -30 callgsubr
            178 -29 return
          </CharString>
          <CharString index="178">
            -79.00999450683594 return
          </CharString>
          <CharString index="179">
            -508.99000549316406 -679 -102.00999450683594 -183.99000549316406 rlineto
            return
          </CharString>
          <CharString index="180">
            145 -78 callgsubr
            -600.9900054931641 -130 vlineto
            return
          </CharString>
          <CharString index="181">
            -7.9900054931640625 return
          </CharString>
          <CharString index="182">
            141.99000549316406 return
          </CharString>
          <CharString index="183">
            132.99000549316406 return
          </CharString>
          <CharString index="184">
            507 callgsubr
            -553.9799957275391 1814.9700012207031 -452.99000549316406 452.99000549316406 return
          </CharString>
          <CharString index="185">
            341 -14 callgsubr
            43 -43 271.99000549316406 750.9799957275391 130 return
          </CharString>
          <CharString index="186">
            75 callsubr
            1254.979995727539 141 return
          </CharString>
          <CharString index="187">
            -19 -89 callsubr
            return
          </CharString>
          <CharString index="188">
            16 callsubr
            rlineto
            return
          </CharString>
          <CharString index="189">
            379.99000549316406 231.02000427246094 274.97999572753906 354 402 -202.02000427246094 160 -239.99000549316406 -129 -104 -62 -64 435 callsubr
            hvcurveto
            597.0099945068359 vlineto
            167 callgsubr
            41 rlineto
            321 callsubr
            hlineto
            -395.97999572753906 -49 rlineto
            217 callsubr
            vlineto
            return
          </CharString>
          <CharString index="190">
            -171 26 rlineto
            57 vlineto
            518 676 93 184 rlineto
            -917 vlineto
            return
          </CharString>
          <CharString index="191">
            180 callgsubr
            904.989990234375 143 return
          </CharString>
          <CharString index="192">
            335.99000549316406 return
          </CharString>
          <CharString index="193">
            1487.990005493164 rmoveto
            -94 338 callsubr
            55 callsubr
            101 -58 callgsubr
            -41 callgsubr
            -20 callsubr
            return
          </CharString>
          <CharString index="194">
            -42 callsubr
            263 callsubr
            109 callsubr
            return
          </CharString>
          <CharString index="195">
            251 callsubr
            hintmask 10101101
            293 callgsubr
            -62 2 callgsubr
            321 callsubr
            hlineto
            -394 -57 callgsubr
            hintmask 10110110
            374 callgsubr
          </CharString>
          <CharString index="196">
            -46 callsubr
            323 callgsubr
            -74 -106 hvcurveto
            return
          </CharString>
          <CharString index="197">
            -423 -46 callgsubr
            -282.00999450683594 -308 -478.99000549316406 vvcurveto
            return
          </CharString>
          <CharString index="198">
            7.9900054931640625 return
          </CharString>
          <CharString index="199">
            -93 callsubr
            562 346 callsubr
            92 callgsubr
            hhcurveto
            128 30 109 callgsubr
            -188.99000549316406 203 callgsubr
            -105 80 callsubr
            return
          </CharString>
          <CharString index="200">
            209 51 -143 -139 -177 -76 -133 -154.99000549316406 -110 58 callsubr
            186 callgsubr
            28 436 callsubr
            hvcurveto
            return
          </CharString>
          <CharString index="201">
            556 vlineto
            309 -69 143 -260 -180 -142 -88 -64 -70.99000549316406 vhcurveto
            16 185 return
          </CharString>
          <CharString index="202">
            rmoveto
            134 2 callsubr
            rlineto
            46 -63 callsubr
            80 186 217 vvcurveto
            127 -29 98 return
          </CharString>
          <CharString index="203">
            54 callsubr
            endchar
          </CharString>
          <CharString index="204">
            -150.97999572753906 -116 181 callgsubr
            -87 -29 return
          </CharString>
          <CharString index="205">
            -66 callsubr
            49 444 96.99000549316406 vvcurveto
            return
          </CharString>
          <CharString index="206">
            90.99000549316406 return
          </CharString>
          <CharString index="207">
            -40.02000427246094 130 callgsubr
            rlineto
            -73.02000427246094 59 callsubr
            -55 58 callsubr
            -164 hhcurveto
            -199.99000549316406 -150 221 359 491 callsubr
            hvcurveto
            922.0099945068359 -1 rlineto
            11 50 91 callsubr
            107 68 callgsubr
            vvcurveto
            return
          </CharString>
          <CharString index="208">
            208.00999450683594 -46.99998474121094 207.99000549316406 hstemhm
            return
          </CharString>
          <CharString index="209">
            95 callsubr
            58 callgsubr
            35 vhcurveto
            -222 537 callgsubr
            19 -24 35.99000549316406 193 callsubr
            return
          </CharString>
          <CharString index="210">
            -49 92 340 callsubr
            -12 hvcurveto
            -52 callsubr
            16 -1 16 11 vvcurveto
            return
          </CharString>
          <CharString index="211">
            54 81 35 81.97999572753906 hhcurveto
            133.02000427246094 -47 callsubr
            return
          </CharString>
          <CharString index="212">
            -204.99000549316406 -16 callgsubr
            rlineto
            return
          </CharString>
          <CharString index="213">
            1810.979995727539 rmoveto
            -87 return
          </CharString>
          <CharString index="214">
            352.99000549316406 return
          </CharString>
          <CharString index="215">
            -27.009994506835938 return
          </CharString>
          <CharString index="216">
            132.02000427246094 return
          </CharString>
          <CharString index="217">
            372 callsubr
            rlineto
            176 92 -98 -215 -186 -74 -145 -206 318 callgsubr
            return
          </CharString>
          <CharString index="218">
            230 callgsubr
            5 vvcurveto
            -158 hlineto
            -2 122 callsubr
            return
          </CharString>
          <CharString index="219">
            hlineto
            -305.99000549316406 -400.02000427246094 rlineto
            return
          </CharString>
          <CharString index="220">
            196 callgsubr
            2 hlineto
            return
          </CharString>
          <CharString index="221">
            -2 callgsubr
            -10 hlineto
            -57 -98 189 callgsubr
            -98 hvcurveto
            hintmask 01111110
            483 callsubr
            493 callsubr
            -11 22 427 callsubr
            return
          </CharString>
          <CharString index="222">
            -448 318.02000427246094 510 callsubr
            -78 callgsubr
            -599 -131 vlineto
            135 -50 callgsubr
            return
          </CharString>
          <CharString index="223">
            -111 hvcurveto
            -1 hlineto
            return
          </CharString>
          <CharString index="224">
            88.99000549316406 return
          </CharString>
          <CharString index="225">
            -59 44 rlineto
            -6 hlineto
            -402.99000549316406 433 callsubr
            146 -50 callgsubr
            return
          </CharString>
          <CharString index="226">
            -351 -23 198.97999572753906 846.010009765625 146 return
          </CharString>
          <CharString index="227">
            306 callgsubr
            1218.5 155.99000549316406 return
          </CharString>
          <CharString index="228">
            -62 -23 145.97999572753906 1270 144.99000549316406 return
          </CharString>
          <CharString index="229">
            56 callgsubr
            0 -15.009994506835938 -15 vvcurveto
            return
          </CharString>
          <CharString index="230">
            452 callgsubr
            363 return
          </CharString>
          <CharString index="231">
            146.97999572753906 return
          </CharString>
          <CharString index="232">
            -95.99000549316406 return
          </CharString>
          <CharString index="233">
            339.97999572753906 return
          </CharString>
          <CharString index="234">
            635.9900054931641 1167.990005493164 rmoveto
            -301 -272 -199 -404.00999450683594 -365 200.99000549316406 -222.97999572753906 343 302 271.02000427246094 187.97999572753906 415 365 -201.02000427246094 223 -343 hvcurveto
            return
          </CharString>
          <CharString index="235">
            hvcurveto
            -1 423 callgsubr
            -22 callgsubr
            122 callsubr
            return
          </CharString>
          <CharString index="236">
            294 callsubr
            -161 149 callsubr
            return
          </CharString>
          <CharString index="237">
            75 callsubr
            151 532 callgsubr
            121.02000427246094 280 callgsubr
            return
          </CharString>
          <CharString index="238">
            rmoveto
            -106 -31.990005493164062 167 145 518 callgsubr
            34 128.99000549316406 110 85 callgsubr
            29.979995727539062 286 callgsubr
            -158 1 hvcurveto
            -174 58 callgsubr
            -128 99 callgsubr
            vhcurveto
            endchar
          </CharString>
          <CharString index="239">
            143.5 713.4799957275391 311 -56.94000244140625 -74 callsubr
            return
          </CharString>
          <CharString index="240">
            -53 -525.9900054931641 86 -59 rlineto
            218 callgsubr
            -47 callsubr
            84 33.02000427246094 286 callsubr
            hhcurveto
            134 158 callgsubr
            -63 456 callsubr
            75 callgsubr
            -138 71 callsubr
            -202 hvcurveto
            return
          </CharString>
          <CharString index="241">
            207 hlineto
            215 callgsubr
            646.9900054931641 rlineto
            -305.99000549316406 364 callgsubr
            -646.9900054931641 rlineto
            return
          </CharString>
          <CharString index="242">
            -164 -26 rlineto
            222 callgsubr
            return
          </CharString>
          <CharString index="243">
            192 217 callgsubr
            375.989990234375 159 callgsubr
            return
          </CharString>
          <CharString index="244">
            hstemhm
            -26 1230.990005493164 -459.010009765625 458.99000549316406 return
          </CharString>
          <CharString index="245">
            273 208 99.97999572753906 5 106 return
          </CharString>
          <CharString index="246">
            346 callgsubr
            64 callgsubr
            75 return
          </CharString>
          <CharString index="247">
            152.99000549316406 return
          </CharString>
          <CharString index="248">
            336.02000427246094 return
          </CharString>
          <CharString index="249">
            57.02000427246094 return
          </CharString>
          <CharString index="250">
            137.99000549316406 return
          </CharString>
          <CharString index="251">
            112 callgsubr
            138 callsubr
            vhcurveto
            305 callsubr
            vlineto
            104 19 rlineto
            150 -628 -150 vlineto
            193 -23 rlineto
            -421.00999450683594 vlineto
            -46 -42 -91 -23 -92 hhcurveto
            -267 return
          </CharString>
          <CharString index="252">
            190 153 callgsubr
            -683.9900054931641 -30 callgsubr
            return
          </CharString>
          <CharString index="253">
            122 vvcurveto
            146 -135 98 -226 -164 -159 return
          </CharString>
          <CharString index="254">
            -13 -89 vhcurveto
            -1 hlineto
            -14 389 callsubr
            436 callgsubr
            hhcurveto
            61 callgsubr
            547 callsubr
            481 callgsubr
            return
          </CharString>
          <CharString index="255">
            -115.02000427246094 rlineto
            43 55 109 32.02000427246094 426 callsubr
            -40.02000427246094 -11 callgsubr
            -90.00999450683594 -71 -51 -86 58 callgsubr
            hvcurveto
            -47 -20 -54 -17 -37 -7 return
          </CharString>
          <CharString index="256">
            hlineto
            -5 0 288 callgsubr
            -1 -10 vhcurveto
            -55 return
          </CharString>
          <CharString index="257">
            3.9900054931640625 return
          </CharString>
          <CharString index="258">
            4.0200042724609375 return
          </CharString>
          <CharString index="259">
            -414.99000549316406 hlineto
            endchar
          </CharString>
          <CharString index="260">
            148 -22 callgsubr
            18 callgsubr
            -75.02000427246094 -74 vvcurveto
            -124 -98 371 callgsubr
            -181 return
          </CharString>
          <CharString index="261">
            559 callgsubr
            -195.02000427246094 112 callsubr
            return
          </CharString>
          <CharString index="262">
            -33 callgsubr
            419 callgsubr
            511 callgsubr
            return
          </CharString>
          <CharString index="263">
            70 -198 rlineto
            163 hlineto
            return
          </CharString>
          <CharString index="264">
            351.97999572753906 return
          </CharString>
          <CharString index="265">
            rlineto
            311 callsubr
            return
          </CharString>
          <CharString index="266">
            -0.9799957275390625 return
          </CharString>
          <CharString index="267">
            -194.99000549316406 return
          </CharString>
          <CharString index="268">
            309 239 166 callsubr
            313 275 -174.02000427246094 168 -347 hvcurveto
            -258 1 rlineto
            436.99000549316406 vlineto
            216 33 rlineto
            404 callsubr
            -133 vlineto
            -51 callgsubr
            -31 rlineto
            return
          </CharString>
          <CharString index="269">
            hvcurveto
            -1 hlineto
            -47 callgsubr
            188 callsubr
            -37 callgsubr
            return
          </CharString>
          <CharString index="270">
            152 87 111 105 52 297 callgsubr
            return
          </CharString>
          <CharString index="271">
            -722 421 rmoveto
            119.00999450683594 hlineto
            157 63 68 callsubr
            -131 -136 -70 466 callgsubr
            -170 -48 -28 17 callgsubr
            151 callsubr
            -23 hvcurveto
            427.99000549316406 vlineto
            endchar
          </CharString>
          <CharString index="272">
            -100 rlineto
            1.9900054931640625 246 callsubr
            return
          </CharString>
          <CharString index="273">
            177.99000549316406 return
          </CharString>
          <CharString index="274">
            148.99000549316406 return
          </CharString>
          <CharString index="275">
            rlineto
            1193 vlineto
            return
          </CharString>
          <CharString index="276">
            8.990005493164062 return
          </CharString>
          <CharString index="277">
            247 callgsubr
            331 callsubr
            120.02000427246094 100 -357.00999450683594 430 rlineto
            -1 hlineto
            241 callgsubr
            -175 rlineto
            return
          </CharString>
          <CharString index="278">
            rmoveto
            220 callgsubr
            449 vlineto
            return
          </CharString>
          <CharString index="279">
            1925.979995727539 rmoveto
            280 -279.97999572753906 rlineto
            203 hlineto
            292 279.97999572753906 -110 88 return
          </CharString>
          <CharString index="280">
            -22 callsubr
            373 425 callgsubr
            return
          </CharString>
          <CharString index="281">
            109 callgsubr
            169 -40 -112.99000549316406 vvcurveto
            -78 return
          </CharString>
          <CharString index="282">
            97 callsubr
            rrcurveto
            return
          </CharString>
          <CharString index="283">
            -136 vlineto
            156 -30 rlineto
            -343.99000549316406 vlineto
            -141 return
          </CharString>
          <CharString index="284">
            576 callgsubr
            -1193 vlineto
            return
          </CharString>
          <CharString index="285">
            hlineto
            -204 329 callsubr
            return
          </CharString>
          <CharString index="286">
            157 callsubr
            hstemhm
            return
          </CharString>
          <CharString index="287">
            -23 -9 callgsubr
            return
          </CharString>
          <CharString index="288">
            -126.02000427246094 return
          </CharString>
          <CharString index="289">
            -32 callsubr
            133.97999572753906 rmoveto
            245 callgsubr
            return
          </CharString>
          <CharString index="290">
            574 callsubr
            528.0200042724609 hmoveto
            71 callsubr
            -45 callsubr
            -79 -7 callgsubr
            -47 callgsubr
            return
          </CharString>
          <CharString index="291">
            344 hstemhm
            190 callgsubr
            126 callsubr
            -74.989990234375 190 callsubr
            -76 340 return
          </CharString>
          <CharString index="292">
            -23 380 callgsubr
            347.010009765625 0 callgsubr
            363.00999450683594 202.99000549316406 return
          </CharString>
          <CharString index="293">
            -41.99000549316406 return
          </CharString>
          <CharString index="294">
            -98.02000427246094 return
          </CharString>
          <CharString index="295">
            -57.02000427246094 return
          </CharString>
          <CharString index="296">
            37.99000549316406 return
          </CharString>
          <CharString index="297">
            338.97999572753906 return
          </CharString>
          <CharString index="298">
            -303 26 rlineto
            503.00999450683594 vlineto
            270 -8 44 -182 rlineto
            148 533.0099945068359 -149 hlineto
            59 callsubr
            -178 -270 -4 rlineto
            406 callgsubr
            vlineto
            403 -23 rlineto
            return
          </CharString>
          <CharString index="299">
            228 callgsubr
            -115.97999572753906 43 940.9799957275391 188 return
          </CharString>
          <CharString index="300">
            -92 -146 vvcurveto
            -156 -11 -71 -16 -62 vhcurveto
            6 6 callsubr
            rlineto
            return
          </CharString>
          <CharString index="301">
            340 188.010009765625 126 callsubr
            return
          </CharString>
          <CharString index="302">
            -35 callgsubr
            828 226 callgsubr
            return
          </CharString>
          <CharString index="303">
            vvcurveto
            -125.99000549316406 -47 -13 return
          </CharString>
          <CharString index="304">
            vhcurveto
            64 callgsubr
            return
          </CharString>
          <CharString index="305">
            152 -21 callgsubr
            -648.0099945068359 -30 callgsubr
            return
          </CharString>
          <CharString index="306">
            174 29 rlineto
            140 -659.9900054931641 -30 callgsubr
            return
          </CharString>
          <CharString index="307">
            -91 -23 223.99000549316406 1179.989990234375 141 return
          </CharString>
          <CharString index="308">
            169 callgsubr
            321 406.989990234375 340 return
          </CharString>
          <CharString index="309">
            99 callgsubr
            -175 -123.99000549316406 64 -78 return
          </CharString>
          <CharString index="310">
            264.99000549316406 return
          </CharString>
          <CharString index="311">
            51.02000427246094 return
          </CharString>
          <CharString index="312">
            252.99000549316406 return
          </CharString>
          <CharString index="313">
            -693.9900054931641 rmoveto
            48 -27 callsubr
            238 callgsubr
            469 callgsubr
            return
          </CharString>
          <CharString index="314">
            -104 rlineto
            40 46 -32 callsubr
            18 callgsubr
            123 hhcurveto
            344 callgsubr
            13 callsubr
            -62 125 callsubr
            535 callgsubr
          </CharString>
          <CharString index="315">
            -131 vlineto
            187 -12 callgsubr
            -426 -75 -362 -110 -58 -41 4 6 -30 vhcurveto
            return
          </CharString>
          <CharString index="316">
            51 -6 callsubr
            52 91.02000427246094 128 -6 callsubr
            -174 182 hhcurveto
            return
          </CharString>
          <CharString index="317">
            13 callsubr
            390 599.989990234375 269 callsubr
            return
          </CharString>
          <CharString index="318">
            -14 callgsubr
            256 callgsubr
            return
          </CharString>
          <CharString index="319">
            -30 callgsubr
            -5 callgsubr
            -29 rlineto
            return
          </CharString>
          <CharString index="320">
            -191.02000427246094 rlineto
            return
          </CharString>
          <CharString index="321">
            0 -105 callgsubr
            return
          </CharString>
          <CharString index="322">
            299.00999450683594 return
          </CharString>
          <CharString index="323">
            83.99000549316406 return
          </CharString>
          <CharString index="324">
            -118.99000549316406 return
          </CharString>
          <CharString index="325">
            424 -743 rlineto
            -450 vlineto
            -209 -25 rlineto
            endchar
          </CharString>
          <CharString index="326">
            238 callgsubr
            97 -26 callsubr
            return
          </CharString>
          <CharString index="327">
            -136 56 -124.99000549316406 50 101.99000549316406 vvcurveto
            77 74 44 100 callgsubr
            return
          </CharString>
          <CharString index="328">
            105 208.02000427246094 11 -1 189 callsubr
            return
          </CharString>
          <CharString index="329">
            0 195 callsubr
            return
          </CharString>
          <CharString index="330">
            510.00999450683594 737.0200042724609 rlineto
            return
          </CharString>
          <CharString index="331">
            12 callsubr
            141 return
          </CharString>
          <CharString index="332">
            116 -194 175 rcurveline
            return
          </CharString>
          <CharString index="333">
            -170.99000549316406 return
          </CharString>
          <CharString index="334">
            48.99000549316406 return
          </CharString>
          <CharString index="335">
            -135.99000549316406 return
          </CharString>
          <CharString index="336">
            317.99000549316406 return
          </CharString>
          <CharString index="337">
            63.02000427246094 return
          </CharString>
          <CharString index="338">
            -5 callgsubr
            1179.989990234375 170 -141 141 return
          </CharString>
          <CharString index="339">
            -47 callgsubr
            -26 return
          </CharString>
          <CharString index="340">
            9 callsubr
            68.00999450683594 376 callgsubr
            return
          </CharString>
          <CharString index="341">
            -132 -83 2 callsubr
            hvcurveto
            104 -89 rlineto
            hintmask 11001110
            31 29 45 74 83 hhcurveto
            hintmask 11100110
            return
          </CharString>
          <CharString index="342">
            955.9900054931641 1355 rmoveto
            -94 71 482 callgsubr
            vhcurveto
            return
          </CharString>
          <CharString index="343">
            73.00999450683594 return
          </CharString>
          <CharString index="344">
            105.99000549316406 return
          </CharString>
          <CharString index="345">
            218.99000549316406 return
          </CharString>
          <CharString index="346">
            -101.99000549316406 return
          </CharString>
          <CharString index="347">
            41.99000549316406 return
          </CharString>
          <CharString index="348">
            100.99000549316406 return
          </CharString>
          <CharString index="349">
            409 callgsubr
            -23.990005493164062 rlineto
            endchar
          </CharString>
          <CharString index="350">
            -318.02000427246094 -462 569 callgsubr
            142 -1 callsubr
            -597.0099945068359 -131 vlineto
            135 -50 callgsubr
            return
          </CharString>
          <CharString index="351">
            vlineto
            -6 callgsubr
            366 callsubr
            35.99000549316406 -298 1 -63 rrcurveto
            185 hlineto
            7 98 callsubr
            return
          </CharString>
          <CharString index="352">
            141 102.010009765625 -2 callsubr
            return
          </CharString>
          <CharString index="353">
            448 callsubr
            241 callgsubr
            175 rcurveline
            -1 hlineto
            return
          </CharString>
          <CharString index="354">
            vlineto
            -60 44 rlineto
            -4 hlineto
            -400 433 callsubr
            141 -50 callgsubr
            return
          </CharString>
          <CharString index="355">
            203 130 -698.9799957275391 14 callgsubr
            hhcurveto
            return
          </CharString>
          <CharString index="356">
            1673.990005493164 rmoveto
            -189 144 -154.99000549316406 return
          </CharString>
          <CharString index="357">
            213 callgsubr
            112 88 return
          </CharString>
          <CharString index="358">
            -1354.009994506836 107 callgsubr
            return
          </CharString>
          <CharString index="359">
            87 -296 -258 -293 257 return
          </CharString>
          <CharString index="360">
            vlineto
            -75 callsubr
            return
          </CharString>
          <CharString index="361">
            299.99000549316406 return
          </CharString>
          <CharString index="362">
            -13.990005493164062 return
          </CharString>
          <CharString index="363">
            42.99000549316406 return
          </CharString>
          <CharString index="364">
            239 callsubr
            384 callsubr
            -35 -18 -35 hvcurveto
            38.02000427246094 245.99000549316406 rlineto
            486.99000549316406 hlineto
            12 192 rlineto
            -667 hlineto
            return
          </CharString>
          <CharString index="365">
            564.9799957275391 342.02000427246094 return
          </CharString>
          <CharString index="366">
            hlineto
            -57 -98 189 callgsubr
            -98 hvcurveto
            return
          </CharString>
          <CharString index="367">
            150 callgsubr
            117 -88 rlineto
            return
          </CharString>
          <CharString index="368">
            76 callsubr
            -132.99000549316406 return
          </CharString>
          <CharString index="369">
            -936.9799957275391 rlineto
            278 return
          </CharString>
          <CharString index="370">
            117 callsubr
            vhcurveto
            1 hlineto
            return
          </CharString>
          <CharString index="371">
            238 callgsubr
            343 callgsubr
            580 callgsubr
            134 230 callsubr
            72.99000549316406 108.02000427246094 86 -65 69 return
          </CharString>
          <CharString index="372">
            367 callsubr
            146.49000549316406 -146.49000549316406 171.49000549316406 return
          </CharString>
          <CharString index="373">
            0 408 callgsubr
            385.510009765625 134 343.989990234375 131 return
          </CharString>
          <CharString index="374">
            199.99000549316406 return
          </CharString>
          <CharString index="375">
            -393.00999450683594 return
          </CharString>
          <CharString index="376">
            330.99000549316406 return
          </CharString>
          <CharString index="377">
            39.02000427246094 return
          </CharString>
          <CharString index="378">
            -100.99000549316406 return
          </CharString>
          <CharString index="379">
            229.99000549316406 return
          </CharString>
          <CharString index="380">
            234.99000549316406 193 834.989990234375 192 return
          </CharString>
          <CharString index="381">
            252 callgsubr
            320 return
          </CharString>
          <CharString index="382">
            vlineto
            10 callgsubr
            return
          </CharString>
          <CharString index="383">
            399.02000427246094 rlineto
            return
          </CharString>
          <CharString index="384">
            -136 0 124 callsubr
            512.0200042724609 320 callgsubr
            319 376.99000549316406 -147.49000549316406 306 callgsubr
            return
          </CharString>
          <CharString index="385">
            75 callsubr
            430.99998474121094 531 callsubr
            46.97999572753906 356 417.010009765625 return
          </CharString>
          <CharString index="386">
            533 callsubr
            708 1832 241 callgsubr
            18 -708.0099945068359 -1833.979995727539 rlineto
            return
          </CharString>
          <CharString index="387">
            294 callsubr
            -160.99000549316406 149 callsubr
            return
          </CharString>
          <CharString index="388">
            -26 callsubr
            -65 69 return
          </CharString>
          <CharString index="389">
            hstemhm
            482 callsubr
            return
          </CharString>
          <CharString index="390">
            418 -1360.9700012207031 rlineto
            297 hlineto
            return
          </CharString>
          <CharString index="391">
            -9.009994506835938 return
          </CharString>
          <CharString index="392">
            -67.00999450683594 return
          </CharString>
          <CharString index="393">
            89.00999450683594 return
          </CharString>
          <CharString index="394">
            -12.990005493164062 return
          </CharString>
          <CharString index="395">
            381.99000549316406 hintmask 11000000
            187 callgsubr
            1794.990005493164 rmoveto
            89 -1257 rlineto
            203 hlineto
            79 1257 rlineto
            -371 hlineto
            return
          </CharString>
          <CharString index="396" raw="1">
            610ae4e6 1d0b  
          </CharString>
          <CharString index="397">
            -165 -26 rlineto
            endchar
          </CharString>
          <CharString index="398">
            1310.990005493164 1537.990005493164 rmoveto
            -656 -1537.990005493164 rlineto
            210 hlineto
            656 1537.990005493164 rlineto
            -210 hlineto
            return
          </CharString>
          <CharString index="399">
            -128 rlineto
            785 hlineto
            51 297.97999572753906 -130 25 323 callsubr
            228 callsubr
            -438 -44 rlineto
            273 147 return
          </CharString>
          <CharString index="400">
            306.00999450683594 hlineto
            150 157 -14 callgsubr
            112 hhcurveto
            return
          </CharString>
          <CharString index="401">
            176 callgsubr
            -2 14 vhcurveto
            return
          </CharString>
          <CharString index="402">
            175 callgsubr
            4 -18 rlineto
            return
          </CharString>
          <CharString index="403">
            -104 callsubr
            588 -100 callgsubr
            return
          </CharString>
          <CharString index="404">
            141 hstem
            256.97999572753906 141 callsubr
            return
          </CharString>
          <CharString index="405">
            200 -148 43 62 199 hstemhm
            return
          </CharString>
          <CharString index="406">
            88 -299.99000549316406 296 rlineto
            return
          </CharString>
          <CharString index="407">
            106 callsubr
            60 -71 return
          </CharString>
          <CharString index="408">
            363 callgsubr
            107 hvcurveto
            return
          </CharString>
          <CharString index="409">
            109 callsubr
            52 return
          </CharString>
          <CharString index="410">
            1391.979995727539 rmoveto
            return
          </CharString>
          <CharString index="411">
            1 callgsubr
            -29 return
          </CharString>
          <CharString index="412">
            532.0099945068359 return
          </CharString>
          <CharString index="413">
            138.02000427246094 return
          </CharString>
          <CharString index="414">
            -111.99000549316406 return
          </CharString>
          <CharString index="415">
            123.99000549316406 return
          </CharString>
          <CharString index="416">
            63 callsubr
            387 callgsubr
            246.99000549316406 382 callgsubr
            448 vhcurveto
            745 vlineto
            return
          </CharString>
          <CharString index="417">
            hmoveto
            461 callgsubr
            -87 93.99000549316406 50 245 193 54 98 rlinecurve
            -174 148 -328.00999450683594 -402 rlineto
            return
          </CharString>
          <CharString index="418">
            -1192 vlineto
            return
          </CharString>
          <CharString index="419">
            248 225 vvcurveto
            309 callgsubr
            130 callgsubr
            123 -229 -222.99000549316406 -139 -112 -62 -55 vhcurveto
            return
          </CharString>
          <CharString index="420">
            112 299 callsubr
            -202.02000427246094 hlineto
            return
          </CharString>
          <CharString index="421">
            108 callgsubr
            299 callsubr
            -202 hlineto
            return
          </CharString>
          <CharString index="422">
            172.99000549316406 327.97999572753906 return
          </CharString>
          <CharString index="423">
            hvcurveto
            159 callsubr
            hlineto
            return
          </CharString>
          <CharString index="424">
            -53.99000549316406 return
          </CharString>
          <CharString index="425">
            -4.0200042724609375 return
          </CharString>
          <CharString index="426">
            31.009994506835938 return
          </CharString>
          <CharString index="427">
            -217.99000549316406 return
          </CharString>
          <CharString index="428">
            -5.0200042724609375 return
          </CharString>
          <CharString index="429">
            -55.99000549316406 return
          </CharString>
          <CharString index="430">
            -82.99000549316406 return
          </CharString>
          <CharString index="431">
            494 callgsubr
            hstem
            501.97999572753906 327 vstem
            250.97999572753906 -95 callgsubr
            return
          </CharString>
          <CharString index="432">
            1024.979995727539 95 callsubr
            return
          </CharString>
          <CharString index="433">
            309 239 166 callsubr
            313 275 -174 168 -347.00999450683594 hvcurveto
            -257.99000549316406 1 rlineto
            return
          </CharString>
          <CharString index="434">
            260 callsubr
            1 hlineto
            return
          </CharString>
          <CharString index="435">
            vstem
            272 callsubr
            722.9799957275391 rmoveto
            return
          </CharString>
          <CharString index="436">
            75 callgsubr
            rlineto
            return
          </CharString>
          <CharString index="437">
            rlineto
            2 callsubr
            return
          </CharString>
          <CharString index="438">
            -39 callsubr
            hlineto
            return
          </CharString>
          <CharString index="439">
            rlineto
            -1194 return
          </CharString>
          <CharString index="440">
            427 callsubr
            151 callsubr
            -18 rlineto
            return
          </CharString>
          <CharString index="441">
            -24 -244.02000427246094 -338 -17 111 306 callsubr
            return
          </CharString>
          <CharString index="442">
            hvcurveto
            -1 97 callgsubr
            return
          </CharString>
          <CharString index="443">
            507.97999572753906 214.99000549316406 hstem
            272 callsubr
            return
          </CharString>
          <CharString index="444">
            335.00999450683594 return
          </CharString>
          <CharString index="445">
            70.99000549316406 return
          </CharString>
          <CharString index="446">
            -117.99000549316406 return
          </CharString>
          <CharString index="447">
            74.02000427246094 return
          </CharString>
          <CharString index="448">
            201.99000549316406 return
          </CharString>
          <CharString index="449">
            323.00999450683594 return
          </CharString>
          <CharString index="450">
            -125.00999450683594 return
          </CharString>
          <CharString index="451">
            539.9900054931641 return
          </CharString>
          <CharString index="452">
            -33.02000427246094 return
          </CharString>
          <CharString index="453">
            -100 callgsubr
            -116 19 rlineto
            736.0099945068359 vlineto
            36.99000549316406 46 83 182 callgsubr
            return
          </CharString>
          <CharString index="454">
            2 callgsubr
            -5 hlineto
            -361 -46 rlineto
            -158 vlineto
            123 -40 rlineto
            -770 vlineto
            -116 -18 rlineto
            endchar
          </CharString>
          <CharString index="455">
            394 callsubr
            384 return
          </CharString>
          <CharString index="456">
            -11 22 233 callgsubr
            return
          </CharString>
          <CharString index="457">
            -134 -20 rlineto
            return
          </CharString>
          <CharString index="458">
            390 callsubr
            438 callgsubr
            255 callgsubr
            334.99998474121094 555 return
          </CharString>
          <CharString index="459">
            -548 -185.99000549316406 1965.990005493164 hstem
            466 callsubr
            227 vstem
            319 1780 rmoveto
            return
          </CharString>
          <CharString index="460">
            152 -93.96000671386719 -74 callsubr
            245.989990234375 192 hstemhm
            601.9799957275391 280 return
          </CharString>
          <CharString index="461">
            111 vvcurveto
            173 -140.99000549316406 98 -331.02000427246094 vhcurveto
            320 callsubr
            -99 -55 -138 hhcurveto
            return
          </CharString>
          <CharString index="462">
            rmoveto
            -87 60 194 callgsubr
            272 callgsubr
            -57 return
          </CharString>
          <CharString index="463">
            -17 91 -35 callgsubr
            -67.99000549316406 232 hhcurveto
            return
          </CharString>
          <CharString index="464">
            480 callgsubr
            69 117 87 -64 return
          </CharString>
          <CharString index="465">
            -51 callsubr
            334 335 555 return
          </CharString>
          <CharString index="466">
            -235 -320 -255 -192 -110 hvcurveto
            return
          </CharString>
          <CharString index="467">
            214 callsubr
            -104 callsubr
            return
          </CharString>
          <CharString index="468">
            -111 454 callgsubr
            return
          </CharString>
          <CharString index="469">
            -58.02000427246094 -39 -99 return
          </CharString>
          <CharString index="470">
            -6 callgsubr
            hvcurveto
            return
          </CharString>
          <CharString index="471">
            160 callsubr
            hhcurveto
            return
          </CharString>
          <CharString index="472">
            298.97999572753906 return
          </CharString>
          <CharString index="473">
            -44.99000549316406 return
          </CharString>
          <CharString index="474">
            205.99000549316406 return
          </CharString>
          <CharString index="475">
            -142.99000549316406 return
          </CharString>
          <CharString index="476">
            113.99000549316406 return
          </CharString>
          <CharString index="477">
            -311.00999450683594 return
          </CharString>
          <CharString index="478">
            -59.99000549316406 return
          </CharString>
          <CharString index="479">
            0.9799957275390625 return
          </CharString>
          <CharString index="480">
            599 callgsubr
            -357 430 rlineto
            67 callsubr
            -194 -175 rlineto
            return
          </CharString>
          <CharString index="481">
            91 callgsubr
            -47 callgsubr
            return
          </CharString>
          <CharString index="482">
            -134 -12 -16 callsubr
            591.989990234375 426 callgsubr
            return
          </CharString>
          <CharString index="483">
            496 155 189.99000549316406 278 182 -124 159 -273 91 callsubr
            hvcurveto
            return
          </CharString>
          <CharString index="484">
            427 callgsubr
            407 callsubr
            return
          </CharString>
          <CharString index="485">
            266.99000549316406 return
          </CharString>
          <CharString index="486">
            6.9900054931640625 return
          </CharString>
          <CharString index="487">
            53.99000549316406 return
          </CharString>
          <CharString index="488">
            -114.00999450683594 return
          </CharString>
          <CharString index="489">
            -148.99000549316406 return
          </CharString>
          <CharString index="490">
            -161.02000427246094 return
          </CharString>
          <CharString index="491">
            -103.02000427246094 return
          </CharString>
          <CharString index="492">
            105.97999572753906 return
          </CharString>
          <CharString index="493">
            328.99000549316406 return
          </CharString>
          <CharString index="494">
            30 -23 callgsubr
            return
          </CharString>
          <CharString index="495">
            -27 -23 380 callgsubr
            569.010009765625 188.49000549316406 522.4999847412109 141 return
          </CharString>
          <CharString index="496">
            -40 150 callsubr
            9.020004272460938 -28 hvcurveto
            -1 601 callsubr
            return
          </CharString>
          <CharString index="497">
            39.99000549316406 550.9900054931641 return
          </CharString>
          <CharString index="498">
            53 273 hvcurveto
            114.02000427246094 vlineto
            return
          </CharString>
          <CharString index="499">
            hvcurveto
            -1 124 callgsubr
            return
          </CharString>
          <CharString index="500">
            82 callgsubr
            hlineto
            return
          </CharString>
          <CharString index="501">
            hstem
            7 callsubr
            return
          </CharString>
          <CharString index="502">
            158.49000549316406 284 callgsubr
            379 callgsubr
            339 return
          </CharString>
          <CharString index="503">
            -66 callgsubr
            396 184.99000549316406 return
          </CharString>
          <CharString index="504">
            rmoveto
            -23 -269 rlineto
            -19 63 14 callgsubr
            -56.970001220703125 249.02000427246094 hhcurveto
            return
          </CharString>
          <CharString index="505">
            204 callsubr
            93 39 -5 -6 callsubr
            return
          </CharString>
          <CharString index="506">
            vlineto
            178 29 rlineto
            134 -1126.009994506836 vlineto
            return
          </CharString>
          <CharString index="507">
            hstemhm
            -6 callsubr
            334 return
          </CharString>
          <CharString index="508">
            -117 -70 156 -174 hhcurveto
            return
          </CharString>
          <CharString index="509">
            -50 110 rlineto
            -906 hlineto
            return
          </CharString>
          <CharString index="510">
            -827 vlineto
            -133 -20 rlineto
            return
          </CharString>
          <CharString index="511">
            133 -705.9900054931641 return
          </CharString>
          <CharString index="512">
            344.97999572753906 return
          </CharString>
          <CharString index="513">
            -158.99000549316406 return
          </CharString>
          <CharString index="514">
            253.99000549316406 return
          </CharString>
          <CharString index="515">
            -107.00999450683594 return
          </CharString>
          <CharString index="516">
            -181.99000549316406 return
          </CharString>
          <CharString index="517">
            -182.99000549316406 return
          </CharString>
          <CharString index="518">
            216.99000549316406 return
          </CharString>
          <CharString index="519">
            190.02000427246094 return
          </CharString>
          <CharString index="520">
            82.99000549316406 return
          </CharString>
          <CharString index="521">
            163.99000549316406 return
          </CharString>
          <CharString index="522">
            -88.99000549316406 return
          </CharString>
          <CharString index="523">
            -110.97999572753906 355 345.99000549316406 217 188 callgsubr
            253 vhcurveto
            return
          </CharString>
          <CharString index="524">
            431 callgsubr
            255 callgsubr
            251.99998474121094 514 callgsubr
            vstem
            return
          </CharString>
          <CharString index="525">
            555 callsubr
            endchar
          </CharString>
          <CharString index="526">
            -71 88 vhcurveto
            1 hlineto
            -79 callgsubr
            346 callgsubr
            -51 75 116 callsubr
            return
          </CharString>
          <CharString index="527">
            227 257.97999572753906 vvcurveto
            175 -75 85 callgsubr
            -117 vhcurveto
            endchar
          </CharString>
          <CharString index="528">
            536 callgsubr
            234 -121 return
          </CharString>
          <CharString index="529">
            25 256 callsubr
            57 vhcurveto
            141 vlineto
            -18 return
          </CharString>
          <CharString index="530">
            rmoveto
            283 callsubr
            return
          </CharString>
          <CharString index="531">
            hlineto
            568 callgsubr
            227 callsubr
            return
          </CharString>
          <CharString index="532">
            -79 callsubr
            1220.989990234375 141 return
          </CharString>
          <CharString index="533">
            76 hhcurveto
            10 callgsubr
            436 callgsubr
            return
          </CharString>
          <CharString index="534">
            233 callgsubr
            -32 -13 vhcurveto
            return
          </CharString>
          <CharString index="535">
            -28.020004272460938 hvcurveto
            return
          </CharString>
          <CharString index="536">
            1954 rmoveto
            -206 return
          </CharString>
          <CharString index="537">
            rmoveto
            -131.99000549316406 return
          </CharString>
          <CharString index="538">
            412 callsubr
            29 return
          </CharString>
          <CharString index="539">
            508.97999572753906 return
          </CharString>
          <CharString index="540">
            -49 555 callgsubr
            return
          </CharString>
          <CharString index="541">
            1352.990005493164 return
          </CharString>
          <CharString index="542">
            -62.02000427246094 return
          </CharString>
          <CharString index="543">
            -39.02000427246094 return
          </CharString>
          <CharString index="544">
            9.990005493164062 return
          </CharString>
          <CharString index="545">
            334.99000549316406 return
          </CharString>
          <CharString index="546">
            303.97999572753906 return
          </CharString>
          <CharString index="547">
            265.00999450683594 return
          </CharString>
          <CharString index="548">
            420.99000549316406 return
          </CharString>
          <CharString index="549">
            74 callsubr
            -47 hhcurveto
            -82 -51 38.99000549316406 71 71.99000549316406 return
          </CharString>
          <CharString index="550">
            0 callsubr
            75 88 95 45 54 118.99000549316406 hvcurveto
            1 hlineto
            116 return
          </CharString>
          <CharString index="551">
            16 11 vvcurveto
            -151 hlineto
            318 callsubr
            -18 0 59 callsubr
            -29 vvcurveto
            return
          </CharString>
          <CharString index="552">
            -93 callsubr
            692 133 vlineto
            -236 3 callgsubr
            rlineto
            return
          </CharString>
          <CharString index="553">
            156 -45 callsubr
            226.97999572753906 rrcurveto
            24 345 callgsubr
            return
          </CharString>
          <CharString index="554">
            568 callsubr
            321 callsubr
            return
          </CharString>
          <CharString index="555">
            hlineto
            112 271 callgsubr
            68 116 return
          </CharString>
          <CharString index="556">
            0 -79 callgsubr
            -131.99000549316406 return
          </CharString>
          <CharString index="557">
            251 190 454 callsubr
            return
          </CharString>
          <CharString index="558">
            -56 -86 -142 -75 98 -18 callgsubr
            return
          </CharString>
          <CharString index="559">
            43 -31 callgsubr
            return
          </CharString>
          <CharString index="560">
            vlineto
            163 -21 callgsubr
            return
          </CharString>
          <CharString index="561">
            127.97999572753906 192 return
          </CharString>
          <CharString index="562">
            -299.00999450683594 return
          </CharString>
          <CharString index="563">
            -104.02000427246094 return
          </CharString>
          <CharString index="564">
            782.9900054931641 return
          </CharString>
          <CharString index="565">
            -91.00999450683594 return
          </CharString>
          <CharString index="566">
            167.99000549316406 return
          </CharString>
          <CharString index="567">
            67.99000549316406 return
          </CharString>
          <CharString index="568">
            -108.02000427246094 return
          </CharString>
          <CharString index="569">
            -200.99000549316406 return
          </CharString>
          <CharString index="570">
            5.0200042724609375 return
          </CharString>
          <CharString index="571">
            637.9900054931641 return
          </CharString>
          <CharString index="572">
            -56.02000427246094 return
          </CharString>
          <CharString index="573">
            318.99000549316406 return
          </CharString>
          <CharString index="574">
            223 callgsubr
            222.99000549316406 return
          </CharString>
          <CharString index="575">
            689 0 142.49000549316406 828.5 226 callgsubr
            return
          </CharString>
          <CharString index="576">
            224 callgsubr
            -32 -30 307 callgsubr
            return
          </CharString>
          <CharString index="577">
            82 180 callsubr
            583.989990234375 132 571 138 return
          </CharString>
          <CharString index="578">
            -164 -274 -527 -52 -93 rrcurveto
            endchar
          </CharString>
          <CharString index="579">
            hstemhm
            432 callsubr
            357 return
          </CharString>
          <CharString index="580">
            -100 callgsubr
            -203 return
          </CharString>
          <CharString index="581">
            123 330 callsubr
            return
          </CharString>
          <CharString index="582">
            733 1140 rlineto
            return
          </CharString>
          <CharString index="583">
            296 rlineto
            -202 hlineto
            return
          </CharString>
          <CharString index="584">
            -539 -281 159 1611.979995727539 414 callgsubr
            hstem
            return
          </CharString>
          <CharString index="585">
            1594.979995727539 rmoveto
            -167 -3 101 -133 254 hhcurveto
            1 hlineto
            return
          </CharString>
          <CharString index="586">
            642.9900054931641 hlineto
            11 53 3 340 callsubr
            -3 93 rrcurveto
            return
          </CharString>
          <CharString index="587">
            417.010009765625 227 callgsubr
            return
          </CharString>
          <CharString index="588">
            408 callsubr
            87 -296 -258 return
          </CharString>
          <CharString index="589">
            -51 callsubr
            337.02000427246094 return
          </CharString>
          <CharString index="590">
            506 callsubr
            22 -16 vhcurveto
            return
          </CharString>
          <CharString index="591">
            -143.99000549316406 return
          </CharString>
          <CharString index="592">
            317.00999450683594 return
          </CharString>
          <CharString index="593">
            85.00999450683594 return
          </CharString>
          <CharString index="594">
            157.97999572753906 return
          </CharString>
          <CharString index="595">
            58.97999572753906 return
          </CharString>
          <CharString index="596">
            516.9900054931641 return
          </CharString>
          <CharString index="597">
            -358.00999450683594 return
          </CharString>
          <CharString index="598">
            -14.009994506835938 return
          </CharString>
          <CharString index="599">
            237.02000427246094 return
          </CharString>
          <CharString index="600">
            21.020004272460938 return
          </CharString>
          <CharString index="601">
            -34.02000427246094 return
          </CharString>
          <CharString index="602">
            -87 291 191.02000427246094 289 213 callsubr
            return
          </CharString>
          <CharString index="603">
            137 -122 106.99000549316406 -198.99000549316406 -12 vhcurveto
            return
          </CharString>
          <CharString index="604">
            1145.990005493164 646.9799957275391 hstem
            215.97999572753906 return
          </CharString>
          <CharString index="605">
            184.99000549316406 608.9999847412109 172 -141 141 return
          </CharString>
          <CharString index="606">
            206 529 callgsubr
            return
          </CharString>
          <CharString index="607">
            116 562 callsubr
          </CharString>
          <CharString index="608">
            121 -100 rlineto
            return
          </CharString>
          <CharString index="609">
            rmoveto
            -127 269.99000549316406 vlineto
            77 238 -19 57 hhcurveto
            return
          </CharString>
          <CharString index="610">
            -169 -104 -132 -83 2 callsubr
            hvcurveto
            104 -89 rlineto
            return
          </CharString>
          <CharString index="611">
            166 callsubr
            -112 -88 rlineto
            return
          </CharString>
          <CharString index="612">
            348 callsubr
            vstem
            return
          </CharString>
          <CharString index="613">
            -53 3 callgsubr
            -31 return
          </CharString>
          <CharString index="614">
            hlineto
            -1 407 callgsubr
            return
          </CharString>
          <CharString index="615">
            23.990005493164062 rlineto
            return
          </CharString>
          <CharString index="616">
            rlineto
            160 callsubr
            return
          </CharString>
          <CharString index="617">
            vlineto
            0 callgsubr
            return
          </CharString>
          <CharString index="618">
            -21 callsubr
            hhcurveto
            return
          </CharString>
          <CharString index="619">
            0 306 callgsubr
            return
          </CharString>
          <CharString index="620">
            247.99000549316406 return
          </CharString>
          <CharString index="621">
            -288.00999450683594 return
          </CharString>
          <CharString index="622">
            589.9900054931641 return
          </CharString>
          <CharString index="623">
            -355 164 vlineto
            return
          </CharString>
          <CharString index="624">
            -322.99000549316406 return
          </CharString>
          <CharString index="625">
            -130.99000549316406 return
          </CharString>
          <CharString index="626">
            -29.990005493164062 return
          </CharString>
          <CharString index="627">
            -78.00999450683594 return
          </CharString>
          <CharString index="628">
            503.99000549316406 return
          </CharString>
          <CharString index="629">
            -4.0099945068359375 return
          </CharString>
          <CharString index="630">
            878.9799957275391 return
          </CharString>
          <CharString index="631">
            265.99000549316406 return
          </CharString>
          <CharString index="632">
            386.99000549316406 return
          </CharString>
          <CharString index="633">
            hmoveto
            -81 59 -81 return
          </CharString>
          <CharString index="634">
            -155 -22 rlineto
            return
          </CharString>
          <CharString index="635">
            401 callgsubr
            80 -157 171 hhcurveto
            return
          </CharString>
          <CharString index="636">
            43 45 43 hstem
            return
          </CharString>
          <CharString index="637">
            146 hstem
            143 callgsubr
            346.99000549316406 return
          </CharString>
          <CharString index="638">
            165 571 callgsubr
            return
          </CharString>
          <CharString index="639">
            -104 callsubr
            600 -100 callgsubr
            return
          </CharString>
          <CharString index="640">
            330 callgsubr
            194 285 callgsubr
            return
          </CharString>
          <CharString index="641">
            148 17 callsubr
            431 callsubr
            return
          </CharString>
          <CharString index="642">
            -79 callgsubr
            vlineto
            hintmask 01111100
            return
          </CharString>
          <CharString index="643">
            141 -31 callgsubr
            return
          </CharString>
          <CharString index="644">
            141 hstem
            -51 callsubr
            return
          </CharString>
          <CharString index="645">
            43 63.97999572753906 43 hstem
            return
          </CharString>
          <CharString index="646">
            hstemhm
            169 callgsubr
            321 return
          </CharString>
          <CharString index="647">
            hstemhm
            -79 callsubr
            351 return
          </CharString>
          <CharString index="648">
            131 hstemhm
            513.9799957275391 return
          </CharString>
          <CharString index="649">
            58 callsubr
            88 121 return
          </CharString>
          <CharString index="650">
            326 hintmask 00000000
            return
          </CharString>
          <CharString index="651">
            70.97999572753906 return
          </CharString>
          <CharString index="652">
            150.99000549316406 return
          </CharString>
          <CharString index="653">
            362.97999572753906 return
          </CharString>
          <CharString index="654">
            185.02000427246094 return
          </CharString>
          <CharString index="655">
            293.99000549316406 return
          </CharString>
          <CharString index="656">
            173.99000549316406 return
          </CharString>
          <CharString index="657">
            456.99000549316406 return
          </CharString>
          <CharString index="658">
            108.00999450683594 return
          </CharString>
          <CharString index="659">
            -172.02000427246094 return
          </CharString>
          <CharString index="660">
            -828.0099945068359 return
          </CharString>
          <CharString index="661">
            -529 182 hhcurveto
            return
          </CharString>
          <CharString index="662">
            -132 -19 rlineto
            return
          </CharString>
          <CharString index="663">
            166 callgsubr
            291 146 return
          </CharString>
          <CharString index="664">
            105 106 127 -205 -39 callgsubr
            rcurveline
            return
          </CharString>
          <CharString index="665">
            -46 -119.00999450683594 307 callsubr
            -54 return
          </CharString>
          <CharString index="666">
            64 383 callsubr
            170 callgsubr
            hhcurveto
            return
          </CharString>
          <CharString index="667">
            75 167 callgsubr
            -97.02000427246094 vhcurveto
            return
          </CharString>
          <CharString index="668">
            -400 -210 -289.00999450683594 -336 hvcurveto
            return
          </CharString>
          <CharString index="669">
            -41 callgsubr
            rlineto
            endchar
          </CharString>
          <CharString index="670">
            369 callgsubr
            vstem
            return
          </CharString>
          <CharString index="671">
            hstemhm
            236 callgsubr
            return
          </CharString>
          <CharString index="672">
            vlineto
            182 callgsubr
            return
          </CharString>
          <CharString index="673">
            rlineto
            14 callgsubr
            return
          </CharString>
          <CharString index="674">
            0 -79 callsubr
            return
          </CharString>
          <CharString index="675">
            hlineto
            58 callgsubr
            return
          </CharString>
          <CharString index="676">
            59 callgsubr
            hvcurveto
            return
          </CharString>
          <CharString index="677">
            -24 rrcurveto
            1 hlineto
            return
          </CharString>
          <CharString index="678">
            hstemhm
            62.99000549316406 350.97999572753906 return
          </CharString>
          <CharString index="679">
            -31 callgsubr
            337 callsubr
            return
          </CharString>
          <CharString index="680">
            -74 callsubr
            hstemhm
            -21 callsubr
            return
          </CharString>
          <CharString index="681">
            216 callgsubr
            239 callsubr
            hvcurveto
            return
          </CharString>
          <CharString index="682">
            17 callsubr
            58 77 return
          </CharString>
          <CharString index="683">
            132 -44 callgsubr
            return
          </CharString>
          <CharString index="684">
            64 callgsubr
            -112 return
          </CharString>
          <CharString index="685">
            140 -28.979995727539062 return
          </CharString>
          <CharString index="686">
            -38 429 callgsubr
            return
          </CharString>
          <CharString index="687">
            18 -204.97999572753906 rlineto
            return
          </CharString>
          <CharString index="688">
            509.99000549316406 return
          </CharString>
          <CharString index="689">
            95.00999450683594 return
          </CharString>
          <CharString index="690">
            112.00999450683594 return
          </CharString>
          <CharString index="691">
            -306.00999450683594 return
          </CharString>
          <CharString index="692">
            700.9900054931641 return
          </CharString>
          <CharString index="693">
            562.0099945068359 return
          </CharString>
          <CharString index="694">
            146.50999450683594 return
          </CharString>
          <CharString index="695">
            444.99000549316406 return
          </CharString>
          <CharString index="696">
            390.989990234375 return
          </CharString>
          <CharString index="697">
            347.99000549316406 return
          </CharString>
          <CharString index="698">
            341.02000427246094 return
          </CharString>
          <CharString index="699">
            309.97999572753906 return
          </CharString>
          <CharString index="700">
            293.00999450683594 return
          </CharString>
          <CharString index="701">
            263.97999572753906 return
          </CharString>
          <CharString index="702">
            vhcurveto
            1 hlineto
            135 return
          </CharString>
          <CharString index="703">
            269.97999572753906 return
          </CharString>
          <CharString index="704">
            -116 -109 return
          </CharString>
          <CharString index="705">
            196 callsubr
            -89 vhcurveto
            return
          </CharString>
          <CharString index="706">
            132 -1 callsubr
            return
          </CharString>
          <CharString index="707">
            vlineto
            -134 -20 -89 callsubr
            return
          </CharString>
          <CharString index="708">
            124 callgsubr
            63 -13 return
          </CharString>
          <CharString index="709">
            463 callgsubr
            217 callgsubr
            return
          </CharString>
          <CharString index="710">
            126 callgsubr
            226 callsubr
            return
          </CharString>
          <CharString index="711">
            -107 234 -121 94 570 callsubr
            return
          </CharString>
          <CharString index="712">
            -35 rlineto
            3.0200042724609375 hlineto
            endchar
          </CharString>
          <CharString index="713">
            vlineto
            hintmask 1001110010000000
            return
          </CharString>
          <CharString index="714">
            1210 vlineto
            return
          </CharString>
        <CharString name=".notdef">
          357 0 251.99000549316406 906.989990234375 257 hstem
          309 callgsubr
          262 893.989990234375 260.00999450683594 vstem
          309 callgsubr
          1415.990005493164 rmoveto
          -1415.990005493164 1416.009994506836 1415.990005493164 -1416.009994506836 vlineto
          382 -1164 rmoveto
          217 callsubr
          135 343 229 callsubr
          -344 338 114 116 333 -351.99000549316406 328 350.99000549316406 118.99000549316406 -116 -348 -333.99000549316406 348 -343 -112.99000549316406 -113 -337 353.00999450683594 -324.02000427246094 -353.00999450683594 rlineto
          endchar
        </CharString>
        <CharString name="A">
          30 0 -81 callsubr
          313 callgsubr
          hintmask 00000000
          hintmask 11010100
          -42 133.97999572753906 -104 callgsubr
          hintmask 11101000
          -87 callsubr
          hintmask 11010100
          152 callsubr
        </CharString>
        <CharString name="AE">
          -69 callsubr
        </CharString>
        <CharString name="AEacute">
          517 0 158.49000549316406 260.489990234375 159 116.02000427246094 163.49000549316406 310.5 465 callgsubr
          382 callsubr
          167 callsubr
          -144.50001525878906 144.50999450683594 92.00001525878906 597 callgsubr
          -165 560.9799957275391 480 callsubr
          291.00999450683594 146 hintmask 1110011101100000
          839.9900054931641 66 callgsubr
          -184 -1570 430 callsubr
          1198 vlineto
          70 377 -185 53 -133.02000427246094 -258 -455.99000549316406 -27 rlineto
          552 vlineto
          256 -6 35 552 callsubr
          rlineto
          146 505.02000427246094 -147 hlineto
          -35 -163 -255 -7 rlineto
          532.9900054931641 vlineto
          407 -19 rlineto
          hintmask 1111001101100000
          70 -199.99000549316406 rlineto
          162 hlineto
          hintmask 1110011111100000
          -28 354 rlineto
          -1535 -141 hlineto
          205 callsubr
          -28 -499.97999572753906 -1193 -144.02000427246094 -28 rlineto
          -131.99000549316406 560.9900054931641 -79 callgsubr
          vlineto
          -149 -47 callsubr
          97 261 rlineto
          469.00999450683594 -261.97999572753906 hlineto
          hintmask 1110011101100000
          -157 -25 rlineto
          -253 446 rmoveto
          194 519 rlineto
          hintmask 1110101101100000
          104 276 rlineto
          112 -795.0099945068359 hlineto
          hintmask 1110011101100000
          -410.00999450683594 hlineto
          endchar
        </CharString>
        <CharString name="Aacute">
          30 0 -81 callsubr
          85 43 45 467 callgsubr
          hintmask 11011110
          566.9900054931641 -59 callgsubr
          hintmask 11011101
          -608.9900054931641 -1568.009994506836 -104 callgsubr
          hintmask 11101110
          -87 callsubr
          hintmask 11011101
          152 callsubr
        </CharString>
        <CharString name="Abreve">
          30 0 -81 callsubr
          98 564 callgsubr
          -41 344 callsubr
          -151 -79 callsubr
          427.00999450683594 164 hintmask 11011011
          348 302 callgsubr
          308 callsubr
          -155 253 129 callsubr
          -8 2 callsubr
          429 callgsubr
          -44 93 54 -10 128 callsubr
          hintmask 11011101
          -390 -1825.009994506836 -104 callgsubr
          hintmask 11101011
          -87 callsubr
          hintmask 11011101
          152 callsubr
        </CharString>
        <CharString name="Acircumflex">
          30 0 -81 callsubr
          95 43 43.989990234375 43 -41.989990234375 467 callgsubr
          hintmask 0000000000000000
          hintmask 1101110100000000
          320 1710.979995727539 rmoveto
          108.99000549316406 495 callsubr
          hintmask 1101101100000000
          199 callgsubr
          hintmask 1101110100000000
          472 callgsubr
          hintmask 1101101010000000
          -362 -1577 -104 callgsubr
          hintmask 1110101100000000
          -87 callsubr
          hintmask 1101101010000000
          152 callsubr
        </CharString>
        <CharString name="Adieresis">
          -75 callgsubr
        </CharString>
        <CharString name="Agrave">
          30 0 -81 callsubr
          85 43 45 467 callgsubr
          hintmask 11011110
          372 278 callgsubr
          159 callsubr
          178 callsubr
          hintmask 11011101
          -414 -1732.009994506836 -104 callgsubr
          hintmask 11101110
          -87 callsubr
          hintmask 11011101
          152 callsubr
        </CharString>
        <CharString name="Amacron">
          30 0 -81 callsubr
          191 82 callgsubr
          313 callgsubr
          -94 464 callsubr
          hintmask 00000000
          hintmask 11011001
          404.99000549316406 138 callgsubr
          464 callsubr
          82 callgsubr
          -637.9900054931641 vlineto
          hintmask 11011010
          -446.99000549316406 -1781 -104 callgsubr
          hintmask 11101100
          -87 callsubr
          hintmask 11011010
          152 callsubr
        </CharString>
        <CharString name="Aogonek">
          30 607 callgsubr
          330 -81 callsubr
          hstemhm
          -41 344 callsubr
          363.989990234375 263 hintmask 11101110
          -42 365 callgsubr
          2 214 callgsubr
          538.9900054931641 -33 callgsubr
          -159 22.020004272460938 70 251 rlineto
          503.00999450683594 hlineto
          71.99000549316406 -247 -144 -52 callgsubr
          229 callsubr
          vlineto
          -167 322 callsubr
          -129 -136 -117 vvcurveto
          -133 122 -71 159 216 callsubr
          111 25 256 callsubr
          142 callsubr
          vhcurveto
          141 vlineto
          -18 -45.02000427246094 459 callgsubr
          74 callsubr
          -47 hhcurveto
          -86 -59 36 69 75 68 callgsubr
          100 128.97999572753906 49.99000549316406 hvcurveto
          129 -33 callgsubr
          -116 25 -465 1370.009994506836 rlineto
          -352.99000549316406 hlineto
          -462.00999450683594 -1369.009994506836 232 callsubr
          rlineto
          495 427 rmoveto
          hintmask 11110110
          -87 callsubr
          hintmask 11101110
          152 callsubr
        </CharString>
        <CharString name="Aring">
          30 0 144.99000549316406 262 -51 callgsubr
          1333.009994506836 -18 callgsubr
          hstemhm
          -41 344 callsubr
          -132.010009765625 203.00999450683594 306.00001525878906 202.99000549316406 hintmask 11101100
          1357.990005493164 -5 callsubr
          rmoveto
          -460 1355 110 40 70 81 1 112 rlinecurve
          484 callgsubr
          1 -98 169 callgsubr
          -247 hhcurveto
          -1 hlineto
          -204 366 callgsubr
          270 callgsubr
          -166 -3 hvcurveto
          -22 callgsubr
          -103 45 -94 124.00999450683594 1 callgsubr
          rrcurveto
          hintmask 11110100
          -456.00999450683594 -1352.009994506836 232 callsubr
          2 214 callgsubr
          538.9900054931641 -33 callgsubr
          -159 22.020004272460938 70 251 rlineto
          503.00999450683594 hlineto
          71.99000549316406 -247 -144 -52 callgsubr
          633 -100 callgsubr
          hintmask 11101100
          -116 25 rlineto
          -633 1735 rmoveto
          1 hlineto
          115 35 55 callsubr
          -82 -83.99000549316406 59 callgsubr
          -53 -47 callgsubr
          hvcurveto
          -1 hlineto
          -115 -39 75 74 486 callsubr
          35 57 120 hvcurveto
          -272 -1333 rmoveto
          -87 callsubr
          152 callsubr
        </CharString>
        <CharString name="Atilde">
          30 0 -81 callsubr
          123.989990234375 200 -148 43 62 199 313 callgsubr
          hintmask 0000000000000000
          hintmask 1101001100000000
          517.9799957275391 1809.979995727539 rmoveto
          127.02000427246094 80 -157 171 hhcurveto
          hintmask 1101100100000000
          151.97999572753906 87 111 105 52 hvcurveto
          -104.97999572753906 469 callsubr
          -91 401 callsubr
          hintmask 1101011100000000
          -169 -104 -132 -83 -38 hvcurveto
          104 -89 rlineto
          hintmask 1101001100000000
          31 29 182 callgsubr
          74 413 callsubr
          hhcurveto
          hintmask 1101100010000000
          -559.9799957275391 -1676 -104 callgsubr
          hintmask 1110100100000000
          -87 callsubr
          hintmask 1101100010000000
          152 callsubr
        </CharString>
        <CharString name="B">
          -68 callsubr
        </CharString>
        <CharString name="C">
          -62 -23 145.97999572753906 498 callgsubr
          vstem
          7 callsubr
          750 rmoveto
          -478 252 -294.97999572753906 492.99000549316406 240 79 -6 callsubr
          12 127 vhcurveto
          38 336 -98 callgsubr
          hvcurveto
          endchar
        </CharString>
        <CharString name="CR">
          -1413 endchar
        </CharString>
        <CharString name="Cacute">
          121 callsubr
          76.02000427246094 43 45 43 505 callsubr
          634 150 callgsubr
          116.99000549316406 260 callgsubr
          213 -15 callgsubr
          -579.0099945068359 -952 rmoveto
          -478 252 -294.97999572753906 492.99000549316406 240 79 -6 callsubr
          12 127 vhcurveto
          38 336 -98 callgsubr
          hvcurveto
          endchar
        </CharString>
        <CharString name="Ccaron">
          -62 -23 145.97999572753906 498 callgsubr
          vstem
          407 -34 callsubr
          307 callsubr
          -88 rlineto
          -352.00999450683594 -1175.990005493164 rmoveto
          -478 252 -294.97999572753906 492.99000549316406 240 79 -6 callsubr
          12 127 vhcurveto
          38 336 -98 callgsubr
          hvcurveto
          endchar
        </CharString>
        <CharString name="Ccedilla">
          -62 527 callgsubr
          292 144.97999572753906 498 callgsubr
          298 223 vstem
          1283.990005493164 391.99000549316406 rmoveto
          -98 callgsubr
          -441.02000427246094 215 -285 420 -41.97999572753906 hvcurveto
          3 callgsubr
          2 callsubr
          141 callgsubr
          -64 -55 -67 callgsubr
          9.020004272460938 hvcurveto
          5.9799957275390625 10 callgsubr
          -69 106 0 callsubr
          55 203 91 callsubr
          77 59 169 callgsubr
          11 38 336 rcurveline
          endchar
        </CharString>
        <CharString name="Ccircumflex">
          121 callsubr
          86.02000427246094 -2 callsubr
          7 callsubr
          384 hintmask 00000000
          hintmask 11110100
          525 callsubr
          1710.979995727539 rmoveto
          108.99000549316406 -87 291 191.02000427246094 546 callgsubr
          213 callsubr
          hintmask 11101100
          314 callsubr
          hintmask 11110100
          -299 -297 rlineto
          hintmask 11101100
          -332 -960.9900054931641 rmoveto
          -478 252 -294.97999572753906 492.99000549316406 240 79 -6 callsubr
          12 127 vhcurveto
          38 336 -98 callgsubr
          hvcurveto
          endchar
        </CharString>
        <CharString name="Cdotaccent">
          121 callsubr
          124.02000427246094 85 callsubr
          348 callsubr
          168.989990234375 363 vstem
          607.9900054931641 9 callsubr
          68 264 callsubr
          -113 410 callgsubr
          556 callgsubr
          -553 -1067.990005493164 rmoveto
          -478 252 -294.97999572753906 492.99000549316406 240 79 -6 callsubr
          12 127 vhcurveto
          38 336 -98 callgsubr
          hvcurveto
          endchar
        </CharString>
        <CharString name="D">
          155 -14 callgsubr
          -39 callgsubr
          -132 -79 callgsubr
          1262 60 callgsubr
          hintmask 00000000
          hintmask 01101100
          76.97999572753906 133.97999572753906 rmoveto
          23 callsubr
          hintmask 10101100
          -53 callgsubr
          hintmask 01011100
          24 callgsubr
          -1194 vlineto
          hintmask 01101100
          332 callgsubr
          hintmask 10101100
          491.00999450683594 17.020004272460938 rmoveto
          1227 -86 callsubr
          endchar
        </CharString>
        <CharString name="Dcaron">
          155 -14 callgsubr
          -39 callgsubr
          -132 -79 callgsubr
          1262 60 callgsubr
          hintmask 10101100
          415.99000549316406 15 callsubr
          hintmask 01101100
          -339 -1792 rmoveto
          23 callsubr
          hintmask 10101100
          -53 callgsubr
          hintmask 01011100
          24 callgsubr
          -1194 vlineto
          hintmask 01101100
          332 callgsubr
          hintmask 10101100
          491.00999450683594 17.020004272460938 rmoveto
          1227 -86 callsubr
          endchar
        </CharString>
        <CharString name="Dcroat">
          155 -14 callgsubr
          -39 callgsubr
          -132 -79 callgsubr
          572.989990234375 545 callsubr
          538.0200042724609 60 callgsubr
          hintmask 10110110
          77.99000549316406 855.9799957275391 rmoveto
          -151 155 vlineto
          hintmask 01110110
          -546 vlineto
          -156 -25 rlineto
          23 callsubr
          hintmask 10110110
          -53 callgsubr
          hintmask 10101110
          24 callgsubr
          -497.00999450683594 vlineto
          hintmask 10110110
          -155 hlineto
          490 hmoveto
          522.0200042724609 -86 callsubr
          553.9900054931641 274 151 -274 vlineto
          endchar
        </CharString>
        <CharString name="E">
          -66 0 -89 callgsubr
          556 callsubr
          hintmask 11011100
          76.97999572753906 133.97999572753906 -71 callgsubr
          -98 callsubr
          hintmask 11101100
          156 callsubr
          hintmask 11011100
          -45 callgsubr
          332 callgsubr
          endchar
        </CharString>
        <CharString name="Eacute">
          -66 0 -89 callgsubr
          92.00999450683594 43 45 43 556 callsubr
          hintmask 11011111
          529 150 callgsubr
          116.99000549316406 260 callgsubr
          213 -15 callgsubr
          -452.02000427246094 -1568.009994506836 -71 callgsubr
          -98 callsubr
          hintmask 11101111
          156 callsubr
          hintmask 11011111
          -45 callgsubr
          332 callgsubr
          endchar
        </CharString>
        <CharString name="Ebreve">
          -66 0 -89 callgsubr
          105.00999450683594 206.99000549316406 166 callgsubr
          -247.989990234375 -79 callsubr
          378.99998474121094 146 -97.989990234375 164 hintmask 0000000000000000
          hintmask 1101101010000000
          159 callgsubr
          358 callgsubr
          205 callsubr
          129 callsubr
          288 callgsubr
          2 callsubr
          429 callgsubr
          -44.02000427246094 93 54 -9.990005493164062 128 callsubr
          -247 -1825.009994506836 -71 callgsubr
          rlineto
          hintmask 1101110100000000
          -98 callsubr
          hintmask 1110110000000000
          156 callsubr
          hintmask 1101110000000000
          -45 callgsubr
          hintmask 1101101010000000
          332 callgsubr
          endchar
        </CharString>
        <CharString name="Ecaron">
          -66 0 -89 callgsubr
          556 callsubr
          hintmask 11011100
          229 callsubr
          38 callgsubr
          -241 -1792 -71 callgsubr
          -98 callsubr
          hintmask 11101100
          156 callsubr
          hintmask 11011100
          -45 callgsubr
          332 callgsubr
          endchar
        </CharString>
        <CharString name="Ecircumflex">
          -66 0 -89 callgsubr
          345 callgsubr
          -2 callsubr
          232.97999572753906 339 291 146 hintmask 0000000000000000
          hintmask 1101110100000000
          296.97999572753906 282 callgsubr
          594 callgsubr
          213 callsubr
          hintmask 1101101100000000
          199 callgsubr
          hintmask 1101110100000000
          -299 -297 rlineto
          hintmask 1101101110000000
          -220 -1577 -71 callgsubr
          -98 callsubr
          hintmask 1110101100000000
          156 callsubr
          hintmask 1101101100000000
          -45 callgsubr
          hintmask 1101101110000000
          332 callgsubr
          endchar
        </CharString>
        <CharString name="Edieresis">
          -66 0 -89 callgsubr
          130.99998474121094 344 166 callgsubr
          -308 340 188 340 -269 146 hintmask 0000000000000000
          hintmask 1101101100000000
          594 callsubr
          -30 callsubr
          -715 -1677 -71 callgsubr
          rlineto
          hintmask 1101110010000000
          -98 callsubr
          hintmask 1110110000000000
          156 callsubr
          hintmask 1101110000000000
          -45 callgsubr
          hintmask 1101101100000000
          332 callgsubr
          endchar
        </CharString>
        <CharString name="Edotaccent">
          -66 0 -89 callgsubr
          140.00999450683594 335.99000549316406 166 callgsubr
          -54 363 -18 146 hintmask 00000000
          hintmask 11011010
          517.9799957275391 233 callsubr
          -112.99000549316406 hvcurveto
          -1 hlineto
          -121 323 callgsubr
          -74 -106 hvcurveto
          -441 -1684 -71 callgsubr
          rlineto
          hintmask 11011101
          -98 callsubr
          hintmask 11101100
          156 callsubr
          hintmask 11011100
          -45 callgsubr
          hintmask 11011010
          332 callgsubr
          endchar
        </CharString>
        <CharString name="Egrave">
          -66 0 -89 callgsubr
          92.00999450683594 43 45 43 556 callsubr
          hintmask 11011111
          386 callsubr
          536 callgsubr
          233.99000549316406 -121 94 6 callgsubr
          -252 -1732.009994506836 -71 callgsubr
          -98 callsubr
          hintmask 11101111
          156 callsubr
          hintmask 11011111
          -45 callgsubr
          332 callgsubr
          endchar
        </CharString>
        <CharString name="Emacron">
          -66 0 -89 callgsubr
          198.00999450683594 82 callgsubr
          166 callgsubr
          -191 464 callsubr
          -155.99000549316406 146 hintmask 11011100
          380.99000549316406 138 callgsubr
          vlineto
          hintmask 11011010
          638 393 callsubr
          hintmask 11011100
          -638 hlineto
          -304 -1781 -71 callgsubr
          -450 -27 rlineto
          553.9900054931641 vlineto
          hintmask 11011101
          256 -6 35 -175.99000549316406 rlineto
          146 508.99000549316406 -146 hlineto
          -36.99000549316406 -164.99000549316406 -254 -6 rlineto
          531.9900054931641 vlineto
          404 81 callsubr
          hintmask 11101100
          156 callsubr
          hintmask 11011100
          -45 callgsubr
          332 callgsubr
          endchar
        </CharString>
        <CharString name="Eng">
          216 449 callsubr
          487 callsubr
          1197.010009765625 320 callgsubr
          239 callgsubr
          143 callsubr
          -123.00001525878906 123 hstemhm
          244.97999572753906 192 829.010009765625 226 callgsubr
          hintmask 10010110
          69 449 callgsubr
          560.9900054931641 -79 callgsubr
          vlineto
          hintmask 01100110
          -193 12 callsubr
          1034.020004272461 vlineto
          112 -232 601 -953.0200042724609 -13 459 callgsubr
          -16 -31.990005493164062 -15.009994506835938 -24 rlinecurve
          -63 -100 -94 -71 -122 592 callgsubr
          66 384 callgsubr
          rcurveline
          134 18 127 55 115 127 rrcurveto
          77 91 111 120.99000549316406 415 vvcurveto
          925 vlineto
          hintmask 10010110
          170 29 rlineto
          138 -541 -138 vlineto
          hintmask 10100110
          180 -29 rlineto
          -986.0099945068359 vlineto
          -134 270.00999450683594 rlineto
          hintmask 10010110
          -559 883 rlineto
          -503.99000549316406 hlineto
          hintmask 10001110
          -123 vlineto
          hintmask 01100110
          175.99000549316406 -34 rlineto
          -1207.009994506836 vlineto
          hintmask 10010110
          -175.99000549316406 -50 callgsubr
          endchar
        </CharString>
        <CharString name="Eogonek">
          -66 607 callgsubr
          330 -89 callgsubr
          166 callgsubr
          320 callgsubr
          267.02000427246094 -143.010009765625 146 hintmask 11101110
          -36 callsubr
          954 vlineto
          410 callsubr
          -65 491 callgsubr
          -127 -117 vvcurveto
          -133 114.02000427246094 -71 159 216 callsubr
          551 callsubr
          422 callsubr
          366 callsubr
          -30 442 callsubr
          369 callsubr
          522 callgsubr
          136 28 hvcurveto
          10 hlineto
          52 380.99000549316406 -171 49 -124.99000549316406 -258 -450 -27 rlineto
          553.9900054931641 vlineto
          hintmask 11101101
          256 -6 35 -175.99000549316406 rlineto
          146 508.99000549316406 -146 hlineto
          -36.99000549316406 -164.99000549316406 -254 -6 rlineto
          531.9900054931641 vlineto
          404 81 callsubr
          hintmask 11110110
          156 callsubr
          hintmask 11101110
          -45 callgsubr
          332 callgsubr
          endchar
        </CharString>
        <CharString name="Eth">
          155 -14 callgsubr
          -39 callgsubr
          -132 -79 callgsubr
          585.989990234375 142 534.010009765625 60 callgsubr
          hintmask 10110110
          99 callsubr
          860 rmoveto
          -142 75 callsubr
          vlineto
          hintmask 01110110
          -559 vlineto
          -156 -25 rlineto
          23 callsubr
          hintmask 10110110
          -53 callgsubr
          hintmask 10101110
          24 callgsubr
          -493 vlineto
          hintmask 10110110
          385 callgsubr
          hlineto
          477 hmoveto
          518 -86 callsubr
          566.9900054931641 287 142 -287 vlineto
          endchar
        </CharString>
        <CharString name="Euro">
          166 -28 -105 callgsubr
          421.010009765625 142 216.989990234375 140 370.010009765625 144.99000549316406 hstem
          -51 callsubr
          368 vstem
          7 callsubr
          669 rmoveto
          -142 195 vlineto
          -344 63 228 -210.97999572753906 341 hhcurveto
          262 156 callgsubr
          150 callsubr
          87 hvcurveto
          22 297 -156 26.990005493164062 -93 160 callsubr
          rlineto
          -63 -57 -70 -21.020004272460938 -82 hhcurveto
          -180 -105 139 282.00999450683594 -37 hvcurveto
          425 142 -437 hlineto
          -1 35.99000549316406 -41 callgsubr
          37 0 40 0 36 0 35 33 flex1
          464 0.0099945068359375 rlineto
          140 -450.99000549316406 vlineto
          254.02000427246094 35 101 116 174 hhcurveto
          413 callsubr
          94 -19 -45 34 hvcurveto
          230 callsubr
          -244 rlineto
          309 callgsubr
          hlineto
          23 368.99000549316406 rlineto
          230 callgsubr
          68 callsubr
          181 callsubr
          76 -237 hhcurveto
          -342 -246 -184.02000427246094 -331 -88 hvcurveto
          -197 -140 170 hlineto
          -6 -50 -3 -52 -54 vvcurveto
          168 callgsubr
          0 205 callgsubr
          1 16 callsubr
          vhcurveto
          -179 hlineto
          endchar
        </CharString>
        <CharString name="F">
          277 callsubr
          166 callgsubr
          270.010009765625 192 192 callgsubr
          798 -100 callgsubr
          191 callsubr
          hintmask 11101100
          264 callgsubr
          332 callgsubr
          endchar
        </CharString>
        <CharString name="G">
          118 -23 4 callgsubr
          hstem
          210 callsubr
          vstem
          13 callsubr
          744.9799957275391 -87 callgsubr
        </CharString>
        <CharString name="Gbreve">
          123 -23 4 callgsubr
          86.010009765625 564 callgsubr
          544 callsubr
          390 -6 160 427 164 -145 400 callgsubr
          hintmask 11110110
          454.97999572753906 358 callgsubr
          253 244.97999572753906 122 callgsubr
          -22 callgsubr
          14 vhcurveto
          383 callsubr
          101 callgsubr
          hintmask 11111001
          -384 -1214.009994506836 5 callsubr
          endchar
        </CharString>
        <CharString name="Gcaron">
          118 -23 4 callgsubr
          hstem
          210 callsubr
          vstem
          473.99000549316406 15 callsubr
          -408 -1181 -87 callgsubr
        </CharString>
        <CharString name="Gcircumflex">
          118 -23 4 callgsubr
          83.010009765625 -2 callsubr
          210 callsubr
          hintmask 00000000
          hintmask 11111011
          453.97999572753906 282 callgsubr
          594 callgsubr
          213 callsubr
          hintmask 11110111
          199 callgsubr
          hintmask 11111011
          -299 -297 rlineto
          hintmask 11110111
          -388 -966 -87 callgsubr
        </CharString>
        <CharString name="Gcommaaccent">
          123 399 callgsubr
          4 callgsubr
          hstemhm
          544 callsubr
          390 185 325.02000427246094 89.97999572753906 269 callsubr
          hintmask 01111101
          544 callsubr
          744.9799957275391 5 callsubr
          hintmask 10111111
          717 -1304.990005493164 -2 callgsubr
          -10 hlineto
          -57 187 callsubr
          189 callgsubr
          -98 hvcurveto
          hintmask 01111111
          185 callgsubr
          151 callsubr
          -18 rlineto
          hintmask 10111111
          133 callgsubr
        </CharString>
        <CharString name="Gdotaccent">
          123 -23 4 callgsubr
          121.010009765625 512 callgsubr
          544 callsubr
          390 196.010009765625 546 callsubr
          41.00999450683594 400 callgsubr
          hintmask 11111110
          657 9 callsubr
          68 -66.00999450683594 97 -46 callsubr
          556 callgsubr
          -586.0200042724609 -1073 112 callgsubr
          vhcurveto
          hintmask 11111010
          138 callsubr
          hvcurveto
          305 callsubr
          vlineto
          104 19 rlineto
          150 -628 -150 vlineto
          193 -23 rlineto
          -421.00999450683594 vlineto
          -46 -42 -91 -23 -92 hhcurveto
          -267 461 callsubr
          290 373 408 148 211.99000549316406 246.99000549316406 302 callsubr
          -34 16 callsubr
          18 hvcurveto
          18 callgsubr
          -261 rlineto
          234 hlineto
          24 389 rlineto
          17 109 callgsubr
          544 callgsubr
          47 -217 hhcurveto
          hintmask 11111110
          96 callsubr
        </CharString>
        <CharString name="H">
          303 530 callgsubr
          553 callgsubr
          141 hstem
          211 callgsubr
          vstem
          81 133.97999572753906 -55 callsubr
        </CharString>
        <CharString name="Hbar">
          303 45 callsubr
          427.989990234375 168.00999450683594 245.99000549316406 76 callsubr
          246.00999450683594 141 350 callgsubr
          575.010009765625 227 callgsubr
          hintmask 10111110
          380 callsubr
          1134.979995727539 rmoveto
          -133 179 vlineto
          hintmask 01111110
          -842 vlineto
          hintmask 10111110
          -157.99000549316406 -52 callgsubr
          660.9900054931641 -100 callgsubr
          hintmask 01111110
          -165 26 rlineto
          428 575.0200042724609 -428 vlineto
          hintmask 10111110
          -154 -52 callgsubr
          647 -100 callgsubr
          hintmask 01111110
          -156 26 rlineto
          842 197 133 -197 218 vlineto
          157 -21 callgsubr
          -649.0099945068359 -30 callgsubr
          155 -29 rlineto
          -217 -575.0200042724609 218 vlineto
          165 -21 callgsubr
          -660 -30 callgsubr
          157 -29 rlineto
          -217 vlineto
          hintmask 10111110
          -179 hlineto
          1092.009994506836 -378.99000549316406 rmoveto
          -575.0200042724609 245.99000549316406 575.0200042724609 -245.99000549316406 hlineto
          endchar
        </CharString>
        <CharString name="Hcircumflex">
          303 530 callgsubr
          553 callgsubr
          245 callsubr
          211 callgsubr
          hintmask 00000000
          hintmask 11111011
          457.99000549316406 1710.979995727539 rmoveto
          109 495 callsubr
          hintmask 11110111
          313 callsubr
          hintmask 11111011
          -298.99000549316406 -297 rlineto
          hintmask 11110111
          -377 -1577 -55 callsubr
        </CharString>
        <CharString name="I">
          -563 -77 callsubr
          349 callgsubr
          hintmask 00000000
          hintmask 10110000
          99 callsubr
          365 callgsubr
          hintmask 01110000
          -104 callsubr
          674 vlineto
          hintmask 10110000
          -79 callgsubr
          vlineto
          hintmask 01110000
          -94 callgsubr
          hintmask 10110000
          290 callsubr
        </CharString>
        <CharString name="I.uc">
          -33 callsubr
        </CharString>
        <CharString name="IJ">
          244 -77 callsubr
          349 callgsubr
          512 85 callsubr
          hintmask 00000000
          hintmask 10111000
          99 callsubr
          365 callgsubr
          hintmask 01111000
          -104 callsubr
          674 vlineto
          hintmask 10111000
          -79 callgsubr
          vlineto
          hintmask 01111000
          -94 callgsubr
          hintmask 10111000
          -165 -26 rlineto
          722 -408.99000549316406 rmoveto
          74 339 callsubr
          rlineto
          hintmask 01111000
          171 callgsubr
          212 callsubr
          -937 vlineto
          -227 56 callgsubr
          -100 108 callsubr
          -87 vhcurveto
          hintmask 10111000
          0 callsubr
          175 callsubr
          endchar
        </CharString>
        <CharString name="IJ_acutecomb">
          244 -77 callsubr
          342 callgsubr
          43 45 43 349 callgsubr
          512 85 callsubr
          hintmask 01111110
          582.9799957275391 2013.979995727539 rmoveto
          -313 -311.99000549316406 117 260 callgsubr
          212.99000549316406 557 callsubr
          -1 hlineto
          12 -660.9900054931641 rmoveto
          168 -21 callgsubr
          -674 -30 callgsubr
          167.02000427246094 81 callgsubr
          hintmask 10111110
          -165 -26 rlineto
          hintmask 01111110
          -104 callsubr
          674 vlineto
          hintmask 10111110
          -79 callgsubr
          vlineto
          hintmask 01111110
          -170 28 168 callsubr
          340.00999450683594 169 rmoveto
          212 callsubr
          -937 vlineto
          -227 56 callgsubr
          -100 108 callsubr
          -87 vhcurveto
          0 callsubr
          97 callsubr
          74 339 callsubr
          rcurveline
          171 callgsubr
          vlineto
          endchar
        </CharString>
        <CharString name="Iacute">
          -563 -77 callsubr
          342 callgsubr
          43 45 43 349 callgsubr
          hintmask 01111100
          596 callsubr
          -59 callgsubr
          hintmask 10111100
          -179 -1568.009994506836 rmoveto
          hintmask 01111100
          -104 callsubr
          674 vlineto
          hintmask 10111100
          535 callsubr
          -94 callgsubr
          hintmask 10111100
          290 callsubr
        </CharString>
        <CharString name="Ibreve">
          -563 -77 callsubr
          105.010009765625 564 callgsubr
          50.99000549316406 -79 callsubr
          45.019989013671875 190 callsubr
          43.010009765625 164 hintmask 00000000
          hintmask 10111110
          51 302 callgsubr
          308 callsubr
          -155 253 280 callsubr
          -8 579 callsubr
          -44 93 54 -10 128 callsubr
          40 -1825.009994506836 rmoveto
          hintmask 01111100
          36 callsubr
          hintmask 10111110
          290 callsubr
        </CharString>
        <CharString name="Icircumflex">
          -563 -77 callsubr
          102.010009765625 43 43.989990234375 43 -41.989990234375 43 349 callgsubr
          hintmask 00000000
          hintmask 01111010
          23 1710.979995727539 rmoveto
          109 495 callsubr
          hintmask 01110110
          199 callgsubr
          hintmask 01111010
          -298.99000549316406 -297 rlineto
          hintmask 10110110
          68 -1577 rmoveto
          hintmask 01110110
          -104 callsubr
          674 vlineto
          hintmask 10110110
          -79 callgsubr
          vlineto
          hintmask 01110110
          -94 callgsubr
          hintmask 10110110
          290 callsubr
        </CharString>
        <CharString name="Idieresis">
          -563 -77 callsubr
          131 184 callsubr
          hintmask 00000000
          hintmask 10111010
          -61 callsubr
          hintmask 01111000
          36 callsubr
          hintmask 10111010
          290 callsubr
        </CharString>
        <CharString name="Idotaccent">
          -33 callsubr
        </CharString>
        <CharString name="Igrave">
          -563 -77 callsubr
          342 callgsubr
          43 45 43 349 callgsubr
          hintmask 01111100
          75 278 callgsubr
          -0.9900054931640625 178 callsubr
          hintmask 10111100
          16 -1732.009994506836 rmoveto
          hintmask 01111100
          -104 callsubr
          674 vlineto
          hintmask 10111100
          535 callsubr
          -94 callgsubr
          hintmask 10111100
          290 callsubr
        </CharString>
        <CharString name="Imacron">
          -563 -77 callsubr
          490 callgsubr
          82 callgsubr
          hstemhm
          -21 callsubr
          464 callsubr
          -489.9800109863281 190 callsubr
          hintmask 00000000
          hintmask 10111000
          -21 callsubr
          138 callgsubr
          464 callsubr
          82 callgsubr
          -637.9900054931641 vlineto
          -17 -1781 rmoveto
          hintmask 01111000
          36 callsubr
          hintmask 10111000
          290 callsubr
        </CharString>
        <CharString name="Iogonek">
          -563 607 callgsubr
          330 -105 callgsubr
          -104 callsubr
          425 callsubr
          hstemhm
          308 callsubr
          378 callsubr
          -134.98001098632812 190 callsubr
          hintmask 00000000
          hintmask 11011000
          99 callsubr
          365 callgsubr
          hintmask 10111000
          -104 callsubr
          254 callsubr
          vlineto
          -152 -65 -115 -127 -117 vvcurveto
          -133 123 -71 159 216 callsubr
          110 25 256 callsubr
          58 vhcurveto
          141 vlineto
          -18 -45 -28 74 callsubr
          -47 hhcurveto
          -93 -54 38.99000549316406 71 -6 callsubr
          435 callgsubr
          103.02000427246094 116.99000549316406 49.99000549316406 hvcurveto
          hintmask 10110100
          177 -79 callgsubr
          hlineto
          -94 callgsubr
          hintmask 11011000
          290 callsubr
        </CharString>
        <CharString name="Itilde">
          -563 -77 callsubr
          131 298 callsubr
          256 338.97999572753906 hintmask 00000000
          hintmask 01100110
          221 528 callsubr
          hintmask 01110010
          370 callgsubr
          87 111 105 52.02000427246094 hvcurveto
          -105 469 callsubr
          -90.99000549316406 401 callsubr
          hintmask 01101110
          503 callsubr
          hintmask 01100110
          31 29 45 74 83 hhcurveto
          hintmask 10110010
          -130 -1676 rmoveto
          hintmask 01110010
          -104 callsubr
          674 vlineto
          hintmask 10110010
          -79 callgsubr
          vlineto
          hintmask 01110010
          -94 callgsubr
          hintmask 10110010
          290 callsubr
        </CharString>
        <CharString name="J">
          -606 1380.979995727539 297 callsubr
          -70 callsubr
          endchar
        </CharString>
        <CharString name="Jcircumflex">
          -606 1380.979995727539 245 callsubr
          256.97999572753906 141 callsubr
          543 callgsubr
          3 callgsubr
          1710.979995727539 rmoveto
          109 495 callsubr
          hintmask 11011000
          112 88 -300 296 rlineto
          548 callgsubr
          hlineto
          hintmask 11101000
          455 callsubr
          -297 rlineto
          -58 -1985.990005493164 rmoveto
          143 callgsubr
          339 callsubr
          rlineto
          hintmask 11011000
          277.00999450683594 51 191 446 callsubr
          151 callsubr
          186 240 vvcurveto
          784 453 callsubr
          -671 212 callsubr
          -937 vlineto
          -227 56 callgsubr
          -100 -27 -87 vhcurveto
          hintmask 11101000
          -49 175 callsubr
          endchar
        </CharString>
        <CharString name="K">
          128 214 callsubr
          1247 537 callsubr
          338 vstem
          10 callsubr
          endchar
        </CharString>
        <CharString name="Kcommaaccent">
          128 63 callgsubr
          -105 callgsubr
          1247 141 350 callgsubr
          75 325.02000427246094 hintmask 01111000
          10 callsubr
          hintmask 10111100
          -359 -560 -2 callgsubr
          -10 hlineto
          -57 187 callsubr
          189 callgsubr
          -98 hvcurveto
          hintmask 01111100
          185 callgsubr
          151 callsubr
          -18 rlineto
          hintmask 10111100
          133 callgsubr
        </CharString>
        <CharString name="L">
          -102 0 110 callgsubr
          hintmask 10110000
          28 callgsubr
          hintmask 11010000
          1191 vlineto
          hintmask 10110000
          145 callsubr
          hintmask 11010000
          -51 callgsubr
          81 callgsubr
          hintmask 10110000
          501 callgsubr
        </CharString>
        <CharString name="Lacute">
          -102 0 231 callsubr
          342 callgsubr
          301 callgsubr
          340 hintmask 10111100
          365 callsubr
          -59 callgsubr
          -222 -1568.009994506836 207 callgsubr
          hintmask 11011100
          1191 vlineto
          hintmask 10111100
          145 callsubr
          hintmask 11011100
          -51 callgsubr
          81 callgsubr
          hintmask 10111100
          501 callgsubr
        </CharString>
        <CharString name="Lcaron">
          -102 0 110 callgsubr
          377 239 hintmask 10111000
          928.9900054931641 325 callsubr
          -31 35 vhcurveto
          544 callgsubr
          537 callgsubr
          458 callgsubr
          -24 36 193 callsubr
          -852.0099945068359 -891 207 callgsubr
          hintmask 11011000
          1191 vlineto
          hintmask 10111000
          145 callsubr
          hintmask 11011000
          -51 callgsubr
          81 callgsubr
          hintmask 10111000
          501 callgsubr
        </CharString>
        <CharString name="Lcommaaccent">
          -106 63 callgsubr
          110 callgsubr
          6 callsubr
          325.02000427246094 hintmask 01101100
          28 callgsubr
          hintmask 01110100
          1191 vlineto
          hintmask 01101100
          145 callsubr
          hintmask 01110100
          -51 callgsubr
          81 callgsubr
          hintmask 01101100
          -156 -26 rlineto
          hintmask 10101010
          612 -693.9900054931641 -2 callgsubr
          -10 hlineto
          -57 187 callsubr
          189 callgsubr
          -98 hvcurveto
          hintmask 01101010
          -53 493 callsubr
          -31 22 -16 vhcurveto
          3 callgsubr
          -11 22.020004272460938 333 callsubr
          hintmask 10101010
          133 callgsubr
        </CharString>
        <CharString name="Ldot">
          -53 0 -5 callgsubr
          553 107 callsubr
          273.99998474121094 170 -141 536 callsubr
          340 286.010009765625 384 hintmask 11011000
          28 callgsubr
          hintmask 11101000
          1191 vlineto
          hintmask 11011000
          145 callsubr
          hintmask 11101000
          -51 callgsubr
          81 callgsubr
          hintmask 11011000
          -156 -26 rlineto
          hintmask 11011100
          782.0099945068359 759 532 callgsubr
          121 68 callgsubr
          69 117 87 -64 80 597 callsubr
          -95 -75 -110 vhcurveto
          endchar
        </CharString>
        <CharString name="Lslash">
          -106 0 110 callgsubr
          hintmask 10110000
          -63 callsubr
          663.9799957275391 rmoveto
          -146.99000549316406 vlineto
          215 callgsubr
          75 rlineto
          -432 vlineto
          -156 -52 callgsubr
          1150.020004272461 vlineto
          341 callgsubr
          485 callgsubr
          -186.99000549316406 28.020004272460938 98 callgsubr
          564 vlineto
          342 138 rlineto
          156 vlineto
          -342 -144 rlineto
          hintmask 11010000
          477 vlineto
          hintmask 10110000
          145 callsubr
          hintmask 11010000
          -51 callgsubr
          -29 rlineto
          -611 vlineto
          hintmask 10110000
          -188.99000549316406 -77 rlineto
          endchar
        </CharString>
        <CharString name="M">
          -37 callsubr
        </CharString>
        <CharString name="N">
          235 25 callgsubr
          hstem
          273 callsubr
          vstem
          72.99000549316406 133.97999572753906 -83 callgsubr
        </CharString>
        <CharString name="NULL">
          -1413 endchar
        </CharString>
        <CharString name="Nacute">
          503 callgsubr
          342 callgsubr
          529 callsubr
          273 callsubr
          vstem
          694.9900054931641 -59 callgsubr
          -622 -1568.009994506836 -83 callgsubr
        </CharString>
        <CharString name="Ncaron">
          503 callgsubr
          hstem
          273 callsubr
          vstem
          461.99000549316406 15 callsubr
          -389 -1792 -83 callgsubr
        </CharString>
        <CharString name="Ncommaaccent">
          242 63 callgsubr
          27 callsubr
          hstemhm
          234.99000549316406 193 276.00999450683594 255 callgsubr
          233.989990234375 192 hintmask 01111010
          72.99000549316406 133.97999572753906 -29 callsubr
          hintmask 10111110
          773 -693.9900054931641 114 callsubr
          151 callsubr
          -18 rlineto
          hintmask 10111110
          133 callgsubr
        </CharString>
        <CharString name="Ntilde">
          503 callgsubr
          131 298 callsubr
          273 callsubr
          hintmask 00000000
          hintmask 11001110
          641.9900054931641 401 callgsubr
          435 callgsubr
          -157 170 callgsubr
          hhcurveto
          hintmask 11100110
          163 callsubr
          -31.990005493164062 -30 307 callgsubr
          -91 401 callsubr
          hintmask 11011110
          -169 456 callsubr
          234 callsubr
          -569 -1676 -83 callgsubr
        </CharString>
        <CharString name="O">
          81 33 callgsubr
          394 callsubr
          38 callsubr
          vstem
          7 callsubr
          755 -85 callgsubr
        </CharString>
        <CharString name="OE">
          715 -14 callgsubr
          -105 callgsubr
          -117.989990234375 158.49000549316406 535.5099945068359 163.49000549316406 311.5 107 callsubr
          -144.99000549316406 144.99000549316406 -113.98001098632812 369 callsubr
          -113.99000549316406 -105 callgsubr
          hstemhm
          158 callgsubr
          368.97999572753906 561.0099945068359 591 callgsubr
          291.00999450683594 17 callsubr
          hintmask 0110100111000000
          991.9900054931641 hmoveto
          1044.009994506836 hlineto
          70 377 -164 227 callsubr
          -143.02000427246094 -253.99000549316406 -464 -27 rlineto
          552 vlineto
          258.00999450683594 -6 32.99000549316406 552 callsubr
          rlineto
          155 505.02000427246094 -155 hlineto
          -34 -163 -257 -7 rlineto
          532.9900054931641 vlineto
          407 81 callsubr
          hintmask 0111000111000000
          69 -198 rlineto
          163 hlineto
          hintmask 0110100111000000
          -28 353 rlineto
          -954 -18 hlineto
          hintmask 1010001111000000
          27 -67.99000549316406 -75 11 -81 hhcurveto
          -432.00999450683594 -41 callgsubr
          -274 -306.02000427246094 -478.99000549316406 vvcurveto
          -458.02000427246094 219 -317.97999572753906 464 151 callsubr
          vhcurveto
          89 1 100 callgsubr
          -16 callgsubr
          143 callgsubr
          240 callsubr
          rrcurveto
          hintmask 0110100111000000
          -46.97999572753906 vlineto
          hintmask 1010010111000000
          308.97999572753906 vmoveto
          -120 -51 -78 -71 -106.99000549316406 hhcurveto
          -202.02000427246094 1 -123 225 413 vvcurveto
          434.00999450683594 114.00999450683594 217 205 10 callgsubr
          78 -42 491 callgsubr
          51 vhcurveto
          -948 vlineto
          endchar
        </CharString>
        <CharString name="Oacute">
          200 callgsubr
          73.010009765625 529 callsubr
          59.99000549316406 38 callsubr
          vstem
          599 150 callgsubr
          116.99000549316406 260 callgsubr
          213 -15 callgsubr
          -539.0099945068359 -947 -99 callsubr
        </CharString>
        <CharString name="Obreve">
          200 callgsubr
          86.010009765625 206.99000549316406 448 callgsubr
          -51.00001525878906 160 427 164 -60 371.99000549316406 hintmask 00000000
          hintmask 11101100
          380.99000549316406 358 callgsubr
          205 callsubr
          280 callsubr
          74 callsubr
          -38.02000427246094 429 callgsubr
          -44 93 54 -10 hvcurveto
          -1 10 -41 callgsubr
          111 callsubr
          hintmask 11110010
          -321 -1204 -99 callsubr
        </CharString>
        <CharString name="Ocircumflex">
          81 33 callgsubr
          83.010009765625 -2 callsubr
          7 callsubr
          38 callsubr
          563 callgsubr
          348 45 callgsubr
          594 callgsubr
          213 callsubr
          hintmask 11101110
          313 callsubr
          hintmask 11110110
          472 callgsubr
          hintmask 11101110
          -293.00999450683594 -955.9900054931641 -85 callgsubr
        </CharString>
        <CharString name="Odieresis">
          200 callgsubr
          112 344 448 callgsubr
          -111.00001525878906 194 callsubr
          442 callgsubr
          371.99000549316406 hintmask 00000000
          hintmask 11101100
          320.97999572753906 1810.979995727539 rmoveto
          -87 60 419 callsubr
          -120 -38 callgsubr
          -47 callgsubr
          -56 -76 callsubr
          hintmask 11110010
          -789.0099945068359 -1055.990005493164 -99 callsubr
        </CharString>
        <CharString name="Ograve">
          200 callgsubr
          73.010009765625 529 callsubr
          59.99000549316406 38 callsubr
          vstem
          409.99000549316406 331 callgsubr
          337 callgsubr
          -107 233.99000549316406 -121 94 6 callgsubr
          -350 -1111 -99 callsubr
        </CharString>
        <CharString name="Ohungarumlaut">
          81 33 callgsubr
          69.02000427246094 538 callsubr
          54.99000549316406 38 callsubr
          vstem
          337 298 callgsubr
          241 callsubr
          50 151 106 68 callgsubr
          -21 callsubr
          rlinecurve
          -181 140 -289 296 callgsubr
          237 callsubr
          50 163 118 340 callsubr
          378 callgsubr
          -829.0099945068359 -961.9900054931641 -85 callgsubr
        </CharString>
        <CharString name="Omacron">
          200 callgsubr
          179.010009765625 82 callgsubr
          448 callgsubr
          5.9999847412109375 638.0099945068359 522 callsubr
          371.99000549316406 543 callgsubr
          437.99000549316406 138 callgsubr
          638.0099945068359 82 callgsubr
          -638.0099945068359 vlineto
          hintmask 11110100
          -378 -1159.990005493164 -99 callsubr
        </CharString>
        <CharString name="Oslash">
          81 180 callsubr
          -120.99000549316406 43 1364.979995727539 138 -59.94999694824219 -74 callsubr
          176.00999450683594 43 hstemhm
          7 callsubr
          38 callsubr
          hintmask 10101110
          302 -197 rmoveto
          370 callgsubr
          -43 rlineto
          hintmask 01101110
          93 235 rlineto
          hintmask 10011110
          -12 58.02000427246094 63 -6 69 hhcurveto
          441 callsubr
          5 281 160 callgsubr
          480.00999450683594 vvcurveto
          495 callgsubr
          -106.99000549316406 246 -240 111 vhcurveto
          87 223 -143 45 -85 -221 rlineto
          hintmask 10101110
          12 -58 -64 7 -69 hhcurveto
          90 callsubr
          -335.02000427246094 85 callgsubr
          -257.97999572753906 322 callgsubr
          -117 vhcurveto
          125 callsubr
          319 callgsubr
          rlineto
          124.99000549316406 953.9799957275391 rmoveto
          441.02000427246094 -18 callgsubr
          204.99000549316406 200 57 204 callsubr
          56 callgsubr
          -32 256 callsubr
          vhcurveto
          -377 -1100.990005493164 rlineto
          -61 105 -33 187 callgsubr
          231 vvcurveto
          552 503.00999450683594 rmoveto
          57 -100 31 -157 -220 vvcurveto
          -442 -121 -225 -200 317 callsubr
          -48 15 30 -41 vhcurveto
          375.99000549316406 1099 rlineto
          endchar
        </CharString>
        <CharString name="Otilde">
          200 callgsubr
          112 200 -148 43 62 199 hstemhm
          59.99000549316406 38 callsubr
          hintmask 00000000
          hintmask 11001110
          550.9900054931641 528 callsubr
          hintmask 11100110
          163 callsubr
          -32 519 callsubr
          307 callgsubr
          458 callsubr
          401 callsubr
          hintmask 11011110
          -169 -104 234 callsubr
          -491 -1054.990005493164 -99 callsubr
        </CharString>
        <CharString name="P">
          -41 callsubr
        </CharString>
        <CharString name="Q">
          92 -391 206 162 -9 callgsubr
          552 callgsubr
          43 1366.979995727539 138 hstemhm
          59.99000549316406 38 callsubr
          hintmask 11011100
          -45 callsubr
          755 rmoveto
          -466 207 -316.97999572753906 475 5 vhcurveto
          hintmask 10111100
          52 1 49 5 47.99000549316406 10 rrcurveto
          68 callsubr
          226.02000427246094 197 -294.00999450683594 592 callsubr
          hhcurveto
          11 hlineto
          184.02000427246094 62 87 22 20 hvcurveto
          -34 106 rlineto
          -3.9900054931640625 -18 59 callgsubr
          -5 -52 hhcurveto
          -2 hlineto
          409 callsubr
          -275 203.97999572753906 47 -223 hvcurveto
          224 127 -16 callsubr
          257 334 vvcurveto
          461 -204 295 -475 1 vhcurveto
          hintmask 11011100
          -422.99000549316406 -46 callgsubr
          -282.00999450683594 -308 -478.99000549316406 vvcurveto
          372 -39 callsubr
          rmoveto
          441.02000427246094 120.02000427246094 204.99000549316406 267 callsubr
          200 -18 callgsubr
          -185 -435 -442 -121 -225 -200 -199.99000549316406 -119.00999450683594 204.99000549316406 436 vhcurveto
          endchar
        </CharString>
        <CharString name="R">
          73 0 66 callsubr
          350 callgsubr
          393.010009765625 358.99000549316406 hintmask 11101100
          76.97999572753906 133.97999572753906 -76 callgsubr
          hintmask 11011100
          118 callgsubr
          hintmask 11101100
          11 callgsubr
          endchar
        </CharString>
        <CharString name="Racute">
          73 0 66 callsubr
          92 301 callgsubr
          338 393.010009765625 358.99000549316406 hintmask 11101111
          576 150 callgsubr
          116.97999572753906 260 callgsubr
          213 -15 callgsubr
          -499.02000427246094 -1568.009994506836 -76 callgsubr
          hintmask 11011111
          118 callgsubr
          hintmask 11101111
          11 callgsubr
          endchar
        </CharString>
        <CharString name="Rcaron">
          73 0 66 callsubr
          350 callgsubr
          393.010009765625 358.99000549316406 hintmask 11101100
          349 -34 callsubr
          307 callsubr
          -88 rlineto
          -272.02000427246094 -1792 -76 callgsubr
          hintmask 11011100
          118 callgsubr
          hintmask 11101100
          11 callgsubr
          endchar
        </CharString>
        <CharString name="Rcommaaccent">
          73 63 callgsubr
          66 callsubr
          350 callgsubr
          66 255 callgsubr
          2.0200042724609375 358.99000549316406 hintmask 0111101010000000
          76.97999572753906 133.97999572753906 -76 callgsubr
          hintmask 0111011010000000
          118 callgsubr
          hintmask 0111101010000000
          11 callgsubr
          hintmask 1011101100000000
          48 -1345 42 callsubr
          hintmask 0111101100000000
          -53 21 135 callgsubr
          hintmask 1011101100000000
          99 -35 rlineto
          3 hlineto
          endchar
        </CharString>
        <CharString name="S">
          121 callgsubr
          hstem
          201 callsubr
          vstem
          188 callgsubr
          460 callsubr
          -102 callgsubr
        </CharString>
        <CharString name="Sacute">
          121 callgsubr
          73.010009765625 529 callsubr
          201 callsubr
          vstem
          497.99000549316406 66 callgsubr
          -387.00999450683594 -1634 -102 callgsubr
        </CharString>
        <CharString name="Scaron">
          121 callgsubr
          hstem
          201 callsubr
          vstem
          379 callgsubr
          38 callgsubr
          -160 -1857.990005493164 -102 callgsubr
        </CharString>
        <CharString name="Scedilla">
          -172 527 callgsubr
          292 -35 callgsubr
          1281.989990234375 138 539 callsubr
          166 13 callgsubr
          17.999984741210938 340 hintmask 11110100
          1186 435 rmoveto
          249 -223 121 -168 100 callgsubr
          vhcurveto
          -201 100 -155 75 150 vvcurveto
          -21 callsubr
          62 81 160 88 71.99000549316406 -28 -23 18 vhcurveto
          49 -244 rlineto
          182 hlineto
          12.990005493164062 360 rlineto
          6 -18 callsubr
          -145 67.00999450683594 -226 hhcurveto
          -362 -171 -193 -221 -280 233 -137 157 -73 hvcurveto
          211 -98 127 -71 -140 vvcurveto
          -128 -75 -11 callgsubr
          -172 -116.02000427246094 -86 36 36.99000549316406 58 callgsubr
          197 callsubr
          254.02000427246094 rlineto
          -186.97999572753906 hlineto
          178 callgsubr
          hintmask 11111100
          62 -6 164 -73.99000549316406 13 callgsubr
          -10 rrcurveto
          493 callsubr
          -39 24 -18 callsubr
          -53 vvcurveto
          -125.99000549316406 -47 147 callsubr
          6 116 -72.99000549316406 -21 callsubr
          -49 54 rrcurveto
          hintmask 11110100
          359 35.97999572753906 584 callgsubr
          231.02000427246094 186 vvcurveto
          endchar
        </CharString>
        <CharString name="Scircumflex">
          121 callgsubr
          83.010009765625 -2 callsubr
          201 callsubr
          563 callgsubr
          250.97999572753906 282 callgsubr
          289 -191.02000427246094 rlineto
          hintmask 11101110
          112 88 -300.02000427246094 296 rlineto
          548 callgsubr
          hlineto
          hintmask 11110110
          455 callsubr
          -297 rlineto
          hintmask 11101110
          -140 -1642.990005493164 -102 callgsubr
        </CharString>
        <CharString name="Scommaaccent">
          -172 399 callgsubr
          -22 callsubr
          1281.989990234375 138 539 callsubr
          43 255 callgsubr
          38.99998474121094 340 hintmask 01111010
          188 callgsubr
          460 callsubr
          -102 callsubr
          hintmask 10111110
          513 -628 114 callsubr
          521 callgsubr
          -18 rlineto
          hintmask 10111110
          133 callgsubr
        </CharString>
        <CharString name="T">
          54 0 120 callsubr
          hstem
          258 callsubr
          vstem
          -36 callgsubr
          endchar
        </CharString>
        <CharString name="Tbar">
          79 512 callsubr
          450.5 545 callsubr
          617.0099945068359 155.99000549316406 hstem
          576.9799957275391 342.02000427246094 vstem
          439 callgsubr
          748.9900054931641 rmoveto
          -151 238 callsubr
          -438.00999450683594 vlineto
          -256.97999572753906 -52 callgsubr
          523 callsubr
          -100 callgsubr
          -279.97999572753906 186 callgsubr
          rlineto
          437 214 151 -214 622 vlineto
          242 504 callgsubr
          -1327 hlineto
          519 callsubr
          -605 rlineto
          190 hlineto
          83 444 257.97999572753906 10 rlineto
          -622 -218.99000549316406 vlineto
          endchar
        </CharString>
        <CharString name="Tcaron">
          54 0 120 callsubr
          hstem
          258 callsubr
          vstem
          366 -34 callsubr
          307 callsubr
          -88 rlineto
          -58 -1792 -93 callsubr
          523 callsubr
          -100 callgsubr
          -63 callgsubr
          453 callgsubr
          endchar
        </CharString>
        <CharString name="Thorn">
          -46 449 callsubr
          487 callsubr
          167.010009765625 0 callgsubr
          585.0099945068359 145.97999572753906 488 callgsubr
          459 callsubr
          284 callgsubr
          231.99000549316406 190 callsubr
          393.02000427246094 356.97999572753906 hintmask 10110111
          72.99000549316406 449 callgsubr
          706.9900054931641 -79 callgsubr
          vlineto
          hintmask 01111011
          -209 12 callsubr
          441 callgsubr
          vlineto
          321 callsubr
          48 85.02000427246094 -6.9900054931640625 241 callsubr
          hhcurveto
          322 193.99000549316406 145 229 callsubr
          273 -157 132 -297.97999572753906 -121.02000427246094 -75.99000549316406 -11.990005493164062 -8 187 callsubr
          hvcurveto
          181 vlineto
          hintmask 10110111
          168 30 -22 callgsubr
          138 rlineto
          -664 -138 hlineto
          hintmask 01111011
          159 -30 rlineto
          -1196.009994506836 vlineto
          hintmask 10110111
          -159 -50 callgsubr
          891 641.9900054931641 rmoveto
          -209.99000549316406 -93 -102.00999450683594 343 callsubr
          -51 -59 -1 10.020004272460938 -65 vhcurveto
          560.9900054931641 vlineto
          7 34.02000427246094 7 callsubr
          8 56 hhcurveto
          186 4 62 -127 56 callsubr
          vvcurveto
          endchar
        </CharString>
        <CharString name="U">
          29 callsubr
          hstem
          145 callgsubr
          vstem
          -79 callsubr
          623.9799957275391 -101 callgsubr
        </CharString>
        <CharString name="Uacute">
          29 callsubr
          342 callgsubr
          529 callsubr
          145 callgsubr
          vstem
          643.9900054931641 327 callsubr
          81.99000549316406 -6 callgsubr
          213 132 callgsubr
          -484 -1078.009994506836 -101 callgsubr
        </CharString>
        <CharString name="Ubreve">
          29 callsubr
          105.010009765625 206.99000549316406 540 callsubr
          -85.010009765625 160 427 164 -30 217 hintmask 00000000
          hintmask 11101100
          425.97999572753906 358 callgsubr
          205 callsubr
          176 callgsubr
          -22 callgsubr
          14 vhcurveto
          -161 101 callgsubr
          hintmask 11110010
          -266 -1335.009994506836 -101 callgsubr
        </CharString>
        <CharString name="Ucircumflex">
          106 -15.990005493164062 141.99000549316406 1254.979995727539 245 callsubr
          145 callgsubr
          563 callgsubr
          397.99000549316406 45 callgsubr
          546 callgsubr
          213 callsubr
          hintmask 11101110
          314 callsubr
          hintmask 11110110
          455 callsubr
          -297 rlineto
          hintmask 11101110
          -238 -1087 -101 callgsubr
        </CharString>
        <CharString name="Udieresis">
          29 callsubr
          131 344 540 callsubr
          -144.010009765625 194 callsubr
          -87.99000549316406 217 hintmask 00000000
          hintmask 11101100
          366.97999572753906 -69 callgsubr
          hintmask 11110010
          -735.0099945068359 -1187 -101 callgsubr
        </CharString>
        <CharString name="Ugrave">
          29 callsubr
          342 callgsubr
          529 callsubr
          145 callgsubr
          vstem
          455.99000549316406 421 callsubr
          93.99000549316406 6 callgsubr
          -296 -1242.009994506836 -101 callgsubr
        </CharString>
        <CharString name="Uhungarumlaut">
          29 callsubr
          88.02000427246094 538 callsubr
          145 callgsubr
          vstem
          525 callsubr
          298 callgsubr
          101 50 151 557 callgsubr
          -181 140 -288.99000549316406 447 callgsubr
          143 callgsubr
          378 callgsubr
          -774 -1093 -101 callgsubr
        </CharString>
        <CharString name="Umacron">
          29 callsubr
          490 callgsubr
          82 callgsubr
          540 callsubr
          -28.010009765625 197.00999450683594 295.00001525878906 146 25.989990234375 217 hintmask 00000000
          hintmask 11101110
          482.97999572753906 138 callgsubr
          638.0200042724609 82 callgsubr
          -638.0200042724609 vlineto
          hintmask 11110010
          517 callsubr
          -1291 rmoveto
          309 callsubr
          164 callgsubr
          vlineto
          hintmask 11110110
          -524 -141 hlineto
          hintmask 11110010
          -5 callgsubr
          -29 rlineto
          -762 vlineto
          -281.99000549316406 -93.99000549316406 -182 -220.02000427246094 -215 -106.99000549316406 167 callsubr
          320 vhcurveto
          756 vlineto
          hintmask 11101010
          169 387 callsubr
          vlineto
          hintmask 11110010
          -650.0200042724609 -141 hlineto
          130 -29 rlineto
          -728 vlineto
          endchar
        </CharString>
        <CharString name="Uogonek">
          106 607 callgsubr
          314.00999450683594 79 callsubr
          hstem
          -79 callsubr
          351 77.989990234375 378 callsubr
          291.00999450683594 217 vstem
          -79 callsubr
          623.9799957275391 rmoveto
          63 callsubr
          16 16.020004272460938 1 -46 callgsubr
          16 vhcurveto
          -120 371 callgsubr
          181 callsubr
          272 callgsubr
          -116 vvcurveto
          -147 130 -57 156 callgsubr
          108.02000427246094 141 callgsubr
          256 callsubr
          58 vhcurveto
          140 vlineto
          -18 -47 -29 74 callsubr
          -48 hhcurveto
          -80 -50 49.99000549316406 69 76 340 callsubr
          83 105 76.97999572753906 hvcurveto
          198 75 412 callgsubr
          181 326 vvcurveto
          745 vlineto
          164 callgsubr
          -524 212 callsubr
          -762 vlineto
          -281.99000549316406 -93.99000549316406 -182 -220.02000427246094 -215 -106.99000549316406 167 callsubr
          320 vhcurveto
          756 vlineto
          169 387 callsubr
          -650.0200042724609 -30 callgsubr
          130 -29 rlineto
          -728 vlineto
          endchar
        </CharString>
        <CharString name="Uring">
          106 259 callgsubr
          1225.979995727539 170 -141 141 -37 37 -37 118 291.010009765625 -18 callgsubr
          540 callsubr
          -66.010009765625 202.99000549316406 306.02000427246094 202.99000549316406 409 callsubr
          22 149.989990234375 217 hintmask 1010011001100000
          996.9900054931641 1521.990005493164 rmoveto
          hintmask 1010010110000000
          98 43 61 76.99000549316406 1 105 rrcurveto
          484 callgsubr
          -46 callgsubr
          -98 169 callgsubr
          -246.99000549316406 hhcurveto
          -1 hlineto
          -204 366 callgsubr
          270 callgsubr
          -166 -3.0200042724609375 hvcurveto
          -2 125 callsubr
          270 callsubr
          -88 237 callsubr
          -47 rrcurveto
          hintmask 1010011001100000
          -558 -141 hlineto
          hintmask 1100011001100000
          130 -29 rlineto
          -728 vlineto
          309 callsubr
          hintmask 1010011001100000
          164 callgsubr
          -502 vlineto
          hintmask 1000110110000000
          -194 372 rmoveto
          1 hlineto
          584 callgsubr
          35 55 callsubr
          -82 -83.99000549316406 -31 -53 69 callgsubr
          316 callsubr
          -115.02000427246094 -39 75 74 486 callsubr
          35 57 -18 callgsubr
          hvcurveto
          hintmask 1010011001100000
          344 -1304 rmoveto
          -281.99000549316406 -93.99000549316406 -182 -220.02000427246094 -215 -106.99000549316406 167 callsubr
          320 vhcurveto
          756 vlineto
          169 30 rlineto
          hintmask 1001011001100000
          114.00999450683594 vlineto
          -7 34 39 -3 44 hhcurveto
          61 callgsubr
          66 60 10.020004272460938 17.990005493164062 51 hvcurveto
          hintmask 1010011001100000
          -132 vlineto
          hintmask 1100011001100000
          -5 callgsubr
          -29 rlineto
          hintmask 1010011001100000
          -762 vlineto
          endchar
        </CharString>
        <CharString name="Utilde">
          29 callsubr
          131 298 callsubr
          145 callgsubr
          hintmask 00000000
          hintmask 11001110
          586 callgsubr
          528 callsubr
          hintmask 11100110
          163 callsubr
          -31.990005493164062 -30 307 callgsubr
          458 callsubr
          442 callgsubr
          -70 156 -174.02000427246094 hhcurveto
          hintmask 11011110
          -168.99000549316406 456 callsubr
          234 callsubr
          -436 -1186 -101 callgsubr
        </CharString>
        <CharString name="V">
          11 56 callgsubr
          43 1352.9700012207031 141 hstemhm
          -36 1498.990005493164 -514.010009765625 514 hintmask 11100000
          86 434 callsubr
          rmoveto
          501.99000549316406 -1367.979995727539 rlineto
          273.02000427246094 hlineto
          hintmask 11010000
          470 1367.979995727539 -79 callgsubr
          -21 callgsubr
          -514 -30 callgsubr
          155 -29 -280 -898 -40 409 callsubr
          -48 181 -284 900 -5 callgsubr
          -21 callgsubr
          -659.9799957275391 -30 callgsubr
          hintmask 11100000
          122 -28 rlineto
          endchar
        </CharString>
        <CharString name="W">
          682 67 callgsubr
          hstemhm
          437 callgsubr
          2171.990005493164 506 callgsubr
          hintmask 10011000
          81 1350.979995727539 rmoveto
          277 callgsubr
          hintmask 01010100
          525 callsubr
          70 callsubr
          -228 -908 3 callsubr
          hintmask 00111000
          315 callgsubr
          -246.99000549316406 907 168 387 callsubr
          -641.9799957275391 -30 callgsubr
          hintmask 10011000
          -18 callgsubr
          -30 rlineto
          endchar
        </CharString>
        <CharString name="Wacute">
          677 67 callgsubr
          342 callgsubr
          597 callgsubr
          -43 2172 506 callgsubr
          hintmask 10011110
          909.9900054931641 -59 callgsubr
          -833 -351.00999450683594 -3 callsubr
        </CharString>
        <CharString name="Wcircumflex">
          682 67 callgsubr
          102.010009765625 43 43.989990234375 43 -41.989990234375 43 hstemhm
          437 callgsubr
          2171.990005493164 506 callgsubr
          hintmask 0000000000000000
          hintmask 1001110100000000
          668 45 callgsubr
          594 callgsubr
          213 callsubr
          hintmask 1001101100000000
          313 callsubr
          hintmask 1001110100000000
          472 callgsubr
          -587 -360 rmoveto
          hintmask 1001101010000000
          277 callgsubr
          525 callsubr
          70 callsubr
          -228 -908 rlineto
          hintmask 0101101100000000
          3 callsubr
          hintmask 0011101100000000
          315 callgsubr
          -246.99000549316406 907 168 387 callsubr
          -641.9799957275391 -30 callgsubr
          hintmask 1001110100000000
          -18 callgsubr
          -30 rlineto
          endchar
        </CharString>
        <CharString name="Wdieresis">
          677 67 callgsubr
          131 344 hstemhm
          631.9900054931641 424 callgsubr
          126 503 hintmask 10011111
          631.9900054931641 300 callsubr
          87.99000549316406 vhcurveto
          1 hlineto
          109 callsubr
          341 callgsubr
          81 106 82 -51 75 116 callsubr
          -120 34 callsubr
          64 callgsubr
          75 307 callsubr
          hvcurveto
          -1 hlineto
          -47 callgsubr
          465 callsubr
          -76 callsubr
          -1083 -460 423 callsubr
          253 909.9799957275391 203 callsubr
          -909.9799957275391 rlineto
          303 hlineto
          387.00999450683594 70 callsubr
          545 callgsubr
          -908 rlineto
          hintmask 01011111
          3 callsubr
          hintmask 00111111
          315 callgsubr
          -247 907 168.02000427246094 387 callsubr
          -642 -30 callgsubr
          hintmask 10011111
          -18 callgsubr
          -30 rlineto
          endchar
        </CharString>
        <CharString name="Wgrave">
          677 67 callgsubr
          342 callgsubr
          597 callgsubr
          -43 2172 506 callgsubr
          hintmask 10011110
          715.9799957275391 421 callsubr
          94 -24 rrcurveto
          1 hlineto
          116.99000549316406 88 -313 311.99000549316406 rlineto
          -1 178 callsubr
          -639 -515.0099945068359 -3 callsubr
        </CharString>
        <CharString name="X">
          -27 callgsubr
        </CharString>
        <CharString name="Y">
          -4 callsubr
        </CharString>
        <CharString name="Yacute">
          231 callgsubr
          546 260 callsubr
          0.9900054931640625 405 callgsubr
          213.02000427246094 -15 callgsubr
          -246 -1568.009994506836 171 callsubr
          hintmask 11110100
          -80 callgsubr
          hintmask 11111000
          218 callsubr
        </CharString>
        <CharString name="Ycircumflex">
          -62 0 146.49000549316406 1234.489990234375 245 callsubr
          432 callsubr
          357 4.010009765625 516.9900054931641 hintmask 00000000
          hintmask 11110100
          365 callsubr
          45 callgsubr
          546 callgsubr
          213 callsubr
          hintmask 11101100
          108 callgsubr
          88 -300 296 rlineto
          548 callgsubr
          hlineto
          hintmask 11110100
          455 callsubr
          -297 rlineto
          hintmask 11101100
          1 -1577 171 callsubr
          hintmask 11101010
          -80 callgsubr
          hintmask 11101100
          218 callsubr
        </CharString>
</ttFont>
